<svg xmlns="http://www.w3.org/2000/svg">
  <symbol id="arrow" viewBox="0 0 8 6" fill="none">
    <path d="M1 1L4 4L7 1" stroke-width="1.5"/>
  </symbol>

  <symbol id="bag" viewBox="0 0 18 18">
    <path d="M2 18H16C17.104 18 18 17.104 18 16V2C18 0.896 17.104 0 16 0H2C0.896 0 0 0.896 0 2V16C0 17.104 0.896 18 2 18ZM4 8H8V4H10V8H14V10H10V14H8V10H4V8Z" fill="white"/>
  </symbol>

  <symbol id="eye" viewBox="0 0 22 18">
    <path d="M11 0C16.392 0 20.878 3.88 21.819 9C20.879 14.12 16.392 18 11 18C5.608 18 1.122 14.12 0.181 9C1.121 3.88 5.608 0 11 0ZM11 16C13.0395 15.9996 15.0184 15.3068 16.6129 14.0352C18.2073 12.7635 19.3229 10.9883 19.777 9C19.3212 7.0133 18.2049 5.24 16.6106 3.97003C15.0163 2.70005 13.0383 2.00853 11 2.00853C8.9617 2.00853 6.98369 2.70005 5.38938 3.97003C3.79506 5.24 2.67877 7.0133 2.223 9C2.6771 10.9883 3.79267 12.7635 5.38714 14.0352C6.98161 15.3068 8.96053 15.9996 11 16ZM11 13.5C9.80653 13.5 8.66193 13.0259 7.81802 12.182C6.97411 11.3381 6.5 10.1935 6.5 9C6.5 7.80653 6.97411 6.66193 7.81802 5.81802C8.66193 4.97411 9.80653 4.5 11 4.5C12.1935 4.5 13.3381 4.97411 14.182 5.81802C15.0259 6.66193 15.5 7.80653 15.5 9C15.5 10.1935 15.0259 11.3381 14.182 12.182C13.3381 13.0259 12.1935 13.5 11 13.5ZM11 11.5C11.663 11.5 12.2989 11.2366 12.7678 10.7678C13.2366 10.2989 13.5 9.66304 13.5 9C13.5 8.33696 13.2366 7.70107 12.7678 7.23223C12.2989 6.76339 11.663 6.5 11 6.5C10.337 6.5 9.70107 6.76339 9.23223 7.23223C8.76339 7.70107 8.5 8.33696 8.5 9C8.5 9.66304 8.76339 10.2989 9.23223 10.7678C9.70107 11.2366 10.337 11.5 11 11.5Z" fill="white"/>
  </symbol>

  <symbol id="menu" viewBox="0 0 24 24">
    <path d="M3 18h18v-2H3v2zm0-5h18v-2H3v2zm0-7v2h18V6H3z"/>
  </symbol>

  <symbol id="cross" viewBox="0 0 24 24">
    <path d="M19 6.41L17.59 5 12 10.59 6.41 5 5 6.41 10.59 12 5 17.59 6.41 19 12 13.41 17.59 19 19 17.59 13.41 12z"/>
  </symbol>

  <symbol id="logo-black" viewBox="0 0 196 24">
    <path d="M140.543 5.10579H138.898V8.56624H137.794V0.699463H138.898V4.11662H140.563L143.041 0.699463H144.246L141.43 4.50962L144.379 8.56624H143.095L140.543 5.10579Z" fill="#333F48"/>
    <path d="M146.24 8.23986C145.767 7.97675 145.396 7.61705 145.133 7.1541C144.866 6.69448 144.733 6.17159 144.733 5.58541C144.733 4.99923 144.866 4.47966 145.133 4.01672C145.4 3.5571 145.77 3.1974 146.24 2.93761C146.714 2.67783 147.244 2.55127 147.838 2.55127C148.432 2.55127 148.962 2.68116 149.433 2.93761C149.903 3.19407 150.27 3.5571 150.537 4.01672C150.804 4.47633 150.937 4.99923 150.937 5.58541C150.937 6.17159 150.804 6.69115 150.537 7.1541C150.27 7.61372 149.903 7.97675 149.433 8.23986C148.962 8.50298 148.432 8.63287 147.838 8.63287C147.244 8.63287 146.714 8.50298 146.24 8.23986ZM148.869 7.42388C149.172 7.24736 149.413 7.00089 149.583 6.68116C149.756 6.36143 149.843 5.9984 149.843 5.58541C149.843 5.17242 149.756 4.80939 149.583 4.48965C149.409 4.16992 149.172 3.92679 148.869 3.7536C148.565 3.58041 148.222 3.49382 147.838 3.49382C147.455 3.49382 147.111 3.58041 146.807 3.7536C146.504 3.92679 146.264 4.17325 146.087 4.48965C145.91 4.80606 145.823 5.17242 145.823 5.58541C145.823 5.9984 145.913 6.36143 146.087 6.68116C146.26 7.00089 146.504 7.24736 146.807 7.42388C147.111 7.6004 147.455 7.68699 147.838 7.68699C148.222 7.69032 148.565 7.6004 148.869 7.42388Z" fill="#333F48"/>
    <path d="M159.377 2.60791V8.56628H158.396V4.21657L156.168 7.89351H155.694L153.486 4.20658V8.56628H152.495V2.60791H153.609L155.951 6.63122L158.359 2.60791H159.377Z" fill="#333F48"/>
    <path d="M167.012 2.60791V8.56628H165.931V3.55379H162.566V8.56628H161.485V2.60791H167.012Z" fill="#333F48"/>
    <path d="M173.13 3.16071C173.57 3.56371 173.787 4.16987 173.787 4.9692V8.56621H172.763V7.7802C172.583 8.05663 172.326 8.26979 171.992 8.41633C171.659 8.56288 171.262 8.63615 170.805 8.63615C170.138 8.63615 169.601 8.47628 169.2 8.15322C168.8 7.83015 168.6 7.40717 168.6 6.88094C168.6 6.35805 168.79 5.93507 169.174 5.61533C169.557 5.2956 170.164 5.13573 170.998 5.13573H172.71V4.92257C172.71 4.4563 172.573 4.10326 172.303 3.85347C172.032 3.607 171.636 3.48044 171.108 3.48044C170.755 3.48044 170.411 3.54039 170.071 3.65363C169.734 3.7702 169.447 3.92674 169.214 4.11991L168.763 3.31058C169.07 3.06412 169.441 2.87428 169.868 2.74106C170.295 2.61117 170.748 2.54456 171.229 2.54456C172.059 2.55122 172.69 2.75438 173.13 3.16071ZM172.056 7.52707C172.356 7.34389 172.573 7.08411 172.71 6.74439V5.91175H171.042C170.128 5.91175 169.667 6.21816 169.667 6.83432C169.667 7.13407 169.784 7.37054 170.018 7.54373C170.251 7.71691 170.575 7.80351 170.985 7.80351C171.399 7.80351 171.756 7.71025 172.056 7.52707Z" fill="#333F48"/>
    <path d="M175.735 2.60791H176.816V5.1358H180.215V2.60791H181.296V8.56628H180.215V6.07169H176.816V8.56628H175.735V2.60791Z" fill="#333F48"/>
    <path d="M183.404 2.60791H184.485V6.94763L188.144 2.60791H189.125V8.56628H188.044V4.22656L184.398 8.56628H183.408V2.60791H183.404Z" fill="#333F48"/>
    <path d="M196 2.60791V8.56628H195.033V6.67785H193.298H193.175L191.87 8.56628H190.71L192.161 6.53131C191.71 6.39809 191.367 6.17494 191.127 5.86187C190.886 5.55212 190.766 5.16245 190.766 4.6995C190.766 4.01674 190.996 3.49717 191.463 3.14413C191.93 2.79109 192.571 2.61124 193.388 2.61124H196V2.60791ZM192.247 5.6154C192.501 5.80525 192.874 5.90183 193.378 5.90183H195.033V3.55379H193.422C192.387 3.55379 191.867 3.94679 191.867 4.73281C191.87 5.12914 191.994 5.42556 192.247 5.6154Z" fill="#333F48"/>
    <path d="M144.236 14.7478V22.6146H143.131V15.727H139.642L139.562 18.0317C139.525 19.1175 139.435 20.0001 139.299 20.6729C139.158 21.349 138.938 21.8552 138.641 22.1949C138.341 22.5347 137.938 22.7078 137.427 22.7078C137.194 22.7078 136.957 22.6779 136.717 22.6179L136.797 21.6187C136.917 21.6487 137.037 21.662 137.157 21.662C137.481 21.662 137.737 21.5322 137.934 21.2757C138.131 21.0159 138.274 20.6296 138.375 20.1133C138.475 19.5971 138.535 18.9143 138.565 18.0684L138.688 14.7511H144.236V14.7478Z" fill="#333F48"/>
    <path d="M146.51 16.6595H147.591V20.9993L151.251 16.6595H152.231V22.6179H151.151V18.2782L147.501 22.6179H146.51V16.6595Z" fill="#333F48"/>
    <path d="M158.713 17.6021H155.404V22.6146H154.323V16.6595H158.713V17.6021Z" fill="#333F48"/>
    <path d="M163.84 17.209C164.28 17.612 164.497 18.2182 164.497 19.0175V22.6145H163.473V21.8285C163.293 22.1049 163.036 22.3181 162.702 22.4646C162.369 22.6112 161.972 22.6845 161.515 22.6845C160.848 22.6845 160.311 22.5246 159.91 22.2015C159.51 21.8785 159.31 21.4555 159.31 20.9326C159.31 20.4097 159.5 19.9867 159.884 19.667C160.267 19.3472 160.874 19.1874 161.708 19.1874H163.42V18.9742C163.42 18.5079 163.283 18.1549 163.013 17.9051C162.742 17.6586 162.345 17.5321 161.818 17.5321C161.465 17.5321 161.121 17.592 160.781 17.7053C160.441 17.8185 160.157 17.9784 159.924 18.1715L159.473 17.3622C159.78 17.1158 160.15 16.9259 160.577 16.7927C161.004 16.6628 161.458 16.5962 161.938 16.5962C162.769 16.6029 163.403 16.806 163.84 17.209ZM162.766 21.5787C163.066 21.3955 163.283 21.1357 163.42 20.796V19.9634H161.755C160.838 19.9634 160.381 20.2698 160.381 20.886C160.381 21.1857 160.497 21.4222 160.731 21.5954C160.964 21.7685 161.288 21.8551 161.698 21.8551C162.109 21.8551 162.465 21.7619 162.766 21.5787Z" fill="#333F48"/>
    <path d="M166.448 16.6595H167.529V19.1874H170.928V16.6595H172.009V22.6179H170.928V20.1233H167.529V22.6179H166.448V16.6595Z" fill="#333F48"/>
    <path d="M180.182 21.672V24.0001H179.168V22.6179H174.181V24.0001H173.157V21.672H173.47C173.854 21.6487 174.117 21.3789 174.258 20.8627C174.401 20.3465 174.498 19.6138 174.551 18.6712L174.641 16.6595H179.268V21.672H180.182ZM175.358 20.6096C175.265 21.0992 175.095 21.4555 174.845 21.672H178.19V17.6021H175.602L175.545 18.7478C175.515 19.5005 175.452 20.12 175.358 20.6096Z" fill="#333F48"/>
    <path d="M97.0777 17.3855V23.3139H77.6635V0H97.0777V5.92839H85.4024V8.65945H94.4724V14.3214H85.4024V17.3855H97.0777Z" fill="#333F48"/>
    <path d="M127.373 17.219V23.3139H120.688H107.412H99.6862V17.219H100.874C102.228 17.219 103.185 16.3664 103.743 14.6545C104.3 12.9459 104.653 10.4246 104.81 7.09409L105.077 0H124.825V17.219H127.373ZM111.115 13.4721C110.848 15.0375 110.434 16.2864 109.88 17.219H117.086V6.09492H111.715L111.648 7.7602C111.558 10.005 111.381 11.9067 111.115 13.4721Z" fill="#333F48"/>
    <path d="M74.9915 0H68.5201L61.1147 12.423L53.5092 0H37.9144C38.8651 0.256453 39.7791 0.586178 40.6331 1.03247C42.6345 2.07494 44.2024 3.52706 45.3365 5.37885C46.4707 7.23397 47.0378 9.32556 47.0378 11.657C47.0378 13.9883 46.4707 16.0799 45.3365 17.9351C44.2024 19.7902 42.6345 21.239 40.6331 22.2814C39.7758 22.7277 38.8651 23.0575 37.9144 23.3139H54.2097V13.0558L59.28 21.2157H62.7492L67.8196 12.6894L67.8863 23.3139H75.0582L74.9915 0Z" fill="#333F48"/>
    <path d="M40.4096 9.37889H36.1431V5.12244H31.5831V9.37889H27.3167V13.9351H31.5831V18.1949H36.1431V13.9351H40.4096V9.37889Z" fill="#EB3300"/>
    <path d="M22.3864 17.9351L18.4201 11.657L22.3864 5.37885C23.5205 3.52706 25.0883 2.07494 27.0898 1.03247C27.9471 0.586178 28.8578 0.256453 29.8085 0H17.3293L11.8387 8.69276H7.87242V0H0V23.3139H7.87242V14.8876H11.6385L16.6288 23.3139H29.8085C28.8578 23.0575 27.9471 22.7277 27.0898 22.2814C25.0883 21.239 23.5205 19.7902 22.3864 17.9351Z" fill="#EB3300"/>
  </symbol>

  <symbol id="logo-white" viewBox="0 0 190 24">
    <path d="M136.24 5.10575H134.646V8.5662H133.576V0.699417H134.646V4.11657H136.26L138.662 0.699417H139.83L137.101 4.50958L139.959 8.5662H138.714L136.24 5.10575Z" fill="#E3E5E8"/>
    <path d="M141.764 8.2398C141.304 7.97669 140.945 7.61699 140.69 7.15404C140.431 6.69442 140.302 6.17152 140.302 5.58535C140.302 4.99917 140.431 4.4796 140.69 4.01665C140.949 3.55704 141.308 3.19734 141.764 2.93755C142.223 2.67777 142.737 2.55121 143.312 2.55121C143.888 2.55121 144.402 2.6811 144.858 2.93755C145.314 3.19401 145.67 3.55704 145.928 4.01665C146.187 4.47627 146.316 4.99917 146.316 5.58535C146.316 6.17152 146.187 6.69109 145.928 7.15404C145.67 7.61366 145.314 7.97669 144.858 8.2398C144.402 8.50291 143.888 8.63281 143.312 8.63281C142.737 8.63281 142.223 8.50291 141.764 8.2398ZM144.312 7.42381C144.606 7.24729 144.839 7.00083 145.004 6.6811C145.172 6.36137 145.256 5.99834 145.256 5.58535C145.256 5.17236 145.172 4.80933 145.004 4.48959C144.835 4.16986 144.606 3.92673 144.312 3.75354C144.017 3.58035 143.684 3.49376 143.312 3.49376C142.941 3.49376 142.608 3.58035 142.313 3.75354C142.019 3.92673 141.786 4.17319 141.615 4.48959C141.443 4.806 141.359 5.17236 141.359 5.58535C141.359 5.99834 141.447 6.36137 141.615 6.6811C141.783 7.00083 142.019 7.24729 142.313 7.42381C142.608 7.60033 142.941 7.68693 143.312 7.68693C143.684 7.69026 144.017 7.60033 144.312 7.42381Z" fill="#E3E5E8"/>
    <path d="M154.498 2.60782V8.56619H153.547V4.21648L151.387 7.89341H150.928L148.787 4.20649V8.56619H147.827V2.60782H148.907L151.177 6.63113L153.511 2.60782H154.498Z" fill="#E3E5E8"/>
    <path d="M161.9 2.60782V8.56619H160.852V3.5537H157.589V8.56619H156.541V2.60782H161.9Z" fill="#E3E5E8"/>
    <path d="M167.83 3.16069C168.257 3.56369 168.467 4.16985 168.467 4.96919V8.56619H167.474V7.78018C167.3 8.05662 167.051 8.26977 166.727 8.41632C166.404 8.56286 166.019 8.63613 165.576 8.63613C164.929 8.63613 164.409 8.47627 164.021 8.1532C163.633 7.83014 163.439 7.40716 163.439 6.88093C163.439 6.35803 163.623 5.93505 163.995 5.61532C164.367 5.29558 164.955 5.13572 165.764 5.13572H167.423V4.92256C167.423 4.45628 167.29 4.10324 167.028 3.85345C166.766 3.60699 166.381 3.48043 165.87 3.48043C165.528 3.48043 165.195 3.54038 164.865 3.65362C164.538 3.77019 164.26 3.92672 164.034 4.11989L163.597 3.31057C163.895 3.06411 164.254 2.87427 164.668 2.74104C165.081 2.61115 165.521 2.54454 165.987 2.54454C166.792 2.5512 167.403 2.75437 167.83 3.16069ZM166.789 7.52706C167.08 7.34388 167.29 7.08409 167.423 6.74438V5.91174H165.806C164.92 5.91174 164.474 6.21815 164.474 6.8343C164.474 7.13405 164.587 7.37052 164.813 7.54371C165.039 7.7169 165.353 7.80349 165.751 7.80349C166.152 7.80349 166.498 7.71024 166.789 7.52706Z" fill="#E3E5E8"/>
    <path d="M170.356 2.60782H171.403V5.13571H174.698V2.60782H175.746V8.56619H174.698V6.0716H171.403V8.56619H170.356V2.60782Z" fill="#E3E5E8"/>
    <path d="M177.79 2.60782H178.837V6.94754L182.385 2.60782H183.335V8.56619H182.288V4.22647L178.753 8.56619H177.793V2.60782H177.79Z" fill="#E3E5E8"/>
    <path d="M190 2.60782V8.56619H189.062V6.67776H187.381H187.261L185.997 8.56619H184.871L186.278 6.53122C185.842 6.39799 185.508 6.17485 185.276 5.86177C185.043 5.55203 184.926 5.16236 184.926 4.69941C184.926 4.01664 185.15 3.49708 185.602 3.14404C186.055 2.791 186.676 2.61115 187.468 2.61115H190V2.60782ZM186.362 5.61531C186.608 5.80515 186.97 5.90174 187.458 5.90174H189.062V3.5537H187.5C186.498 3.5537 185.994 3.9467 185.994 4.73271C185.997 5.12905 186.116 5.42547 186.362 5.61531Z" fill="#E3E5E8"/>
    <path d="M139.82 14.7477V22.6145H138.75V15.7269H135.367L135.29 18.0316C135.254 19.1174 135.167 20 135.034 20.6728C134.898 21.3489 134.685 21.8551 134.397 22.1948C134.106 22.5346 133.715 22.7077 133.22 22.7077C132.994 22.7077 132.764 22.6778 132.531 22.6178L132.609 21.6187C132.725 21.6486 132.842 21.662 132.958 21.662C133.272 21.662 133.521 21.5321 133.712 21.2756C133.903 21.0158 134.042 20.6295 134.139 20.1132C134.236 19.597 134.294 18.9142 134.323 18.0683L134.443 14.751H139.82V14.7477Z" fill="#E3E5E8"/>
    <path d="M142.025 16.6595H143.073V20.9992L146.62 16.6595H147.571V22.6178H146.523V18.2781L142.986 22.6178H142.025V16.6595Z" fill="#E3E5E8"/>
    <path d="M153.854 17.602H150.646V22.6145H149.599V16.6595H153.854V17.602Z" fill="#E3E5E8"/>
    <path d="M158.824 17.209C159.251 17.612 159.461 18.2181 159.461 19.0175V22.6145H158.469V21.8285C158.294 22.1049 158.045 22.3181 157.722 22.4646C157.398 22.6112 157.013 22.6844 156.57 22.6844C155.924 22.6844 155.403 22.5246 155.015 22.2015C154.627 21.8784 154.433 21.4555 154.433 20.9326C154.433 20.4097 154.617 19.9867 154.989 19.6669C155.361 19.3472 155.95 19.1873 156.758 19.1873H158.417V18.9742C158.417 18.5079 158.284 18.1549 158.022 17.9051C157.76 17.6586 157.376 17.5321 156.865 17.5321C156.522 17.5321 156.189 17.592 155.859 17.7052C155.529 17.8185 155.254 17.9784 155.028 18.1715L154.591 17.3622C154.889 17.1157 155.248 16.9259 155.662 16.7927C156.076 16.6628 156.515 16.5962 156.981 16.5962C157.786 16.6028 158.401 16.806 158.824 17.209ZM157.783 21.5787C158.074 21.3955 158.284 21.1357 158.417 20.796V19.9634H156.803C155.914 19.9634 155.471 20.2698 155.471 20.8859C155.471 21.1857 155.584 21.4221 155.811 21.5953C156.037 21.7685 156.351 21.8551 156.748 21.8551C157.146 21.8551 157.492 21.7619 157.783 21.5787Z" fill="#E3E5E8"/>
    <path d="M161.353 16.6595H162.401V19.1873H165.696V16.6595H166.743V22.6178H165.696V20.1232H162.401V22.6178H161.353V16.6595Z" fill="#E3E5E8"/>
    <path d="M174.666 21.6719V24H173.683V22.6178H168.849V24H167.856V21.6719H168.16C168.532 21.6486 168.787 21.3789 168.923 20.8626C169.062 20.3464 169.156 19.6137 169.208 18.6711L169.295 16.6595H173.78V21.6719H174.666ZM169.99 20.6095C169.9 21.0991 169.735 21.4555 169.492 21.6719H172.736V17.602H170.226L170.171 18.7477C170.142 19.5004 170.081 20.1199 169.99 20.6095Z" fill="#E3E5E8"/>
    <path d="M94.1059 17.3855V23.3139H75.286V0H94.1059V5.92839H82.7881V8.65945H91.5804V14.3214H82.7881V17.3855H94.1059Z" fill="#E3E5E8"/>
    <path d="M123.474 17.219V23.3139H116.994H104.124H96.6346V17.219H97.7858C99.0987 17.219 100.027 16.3664 100.567 14.6545C101.107 12.9459 101.45 10.4246 101.602 7.09409L101.86 0H121.003V17.219H123.474ZM107.713 13.4721C107.454 15.0375 107.053 16.2864 106.517 17.219H113.501V6.09492H108.295L108.231 7.7602C108.143 10.005 107.972 11.9067 107.713 13.4721Z" fill="#E3E5E8"/>
    <path d="M72.6958 0H66.4226L59.2438 12.423L51.8711 0H36.7538C37.6753 0.256453 38.5614 0.586178 39.3892 1.03247C41.3294 2.07494 42.8492 3.52706 43.9486 5.37885C45.0481 7.23397 45.5978 9.32556 45.5978 11.657C45.5978 13.9883 45.0481 16.0799 43.9486 17.9351C42.8492 19.7902 41.3294 21.239 39.3892 22.2814C38.5581 22.7277 37.6753 23.0575 36.7538 23.3139H52.5502V13.0558L57.4653 21.2157H60.8283L65.7435 12.6894L65.8082 23.3139H72.7605L72.6958 0Z" fill="#E3E5E8"/>
    <path d="M39.1725 9.37886H35.0367V5.12241H30.6163V9.37886H26.4804V13.9351H30.6163V18.1948H35.0367V13.9351H39.1725V9.37886Z" fill="#FF401A"/>
    <path d="M21.7011 17.9351L17.8563 11.657L21.7011 5.37885C22.8005 3.52706 24.3203 2.07494 26.2605 1.03247C27.0916 0.586178 27.9744 0.256453 28.896 0H16.7988L11.4762 8.69276H7.63143V0H0V23.3139H7.63143V14.8876H11.2822L16.1198 23.3139H28.896C27.9744 23.0575 27.0916 22.7277 26.2605 22.2814C24.3203 21.239 22.8005 19.7902 21.7011 17.9351Z" fill="#FF401A"/>
  </symbol>

  <symbol id="english" viewBox="0 0 24 24">
    <path d="M12 24C18.6274 24 24 18.6274 24 12C24 5.37258 18.6274 0 12 0C5.37258 0 0 5.37258 0 12C0 18.6274 5.37258 24 12 24Z" fill="#F0F0F0"/>
    <path d="M2.48056 4.69409C1.53796 5.92048 0.827189 7.334 0.41333 8.86958H6.65605L2.48056 4.69409Z" fill="#0052B4"/>
    <path d="M23.5865 8.86953C23.1726 7.334 22.4618 5.92048 21.5193 4.69409L17.3439 8.86953H23.5865Z" fill="#0052B4"/>
    <path d="M0.41333 15.1305C0.827236 16.666 1.538 18.0795 2.48056 19.3059L6.65591 15.1305H0.41333Z" fill="#0052B4"/>
    <path d="M19.3057 2.48061C18.0793 1.538 16.6658 0.827236 15.1302 0.41333V6.656L19.3057 2.48061Z" fill="#0052B4"/>
    <path d="M4.69409 21.5192C5.92048 22.4618 7.334 23.1726 8.86953 23.5865V17.3439L4.69409 21.5192Z" fill="#0052B4"/>
    <path d="M8.86948 0.41333C7.33395 0.827236 5.92044 1.538 4.69409 2.48056L8.86948 6.65595V0.41333Z" fill="#0052B4"/>
    <path d="M15.1302 23.5865C16.6658 23.1726 18.0793 22.4618 19.3056 21.5193L15.1302 17.3439V23.5865Z" fill="#0052B4"/>
    <path d="M17.3439 15.1305L21.5193 19.3059C22.4618 18.0796 23.1726 16.666 23.5865 15.1305H17.3439Z" fill="#0052B4"/>
    <path d="M23.8984 10.4348H13.5653H13.5653V0.101578C13.0529 0.034875 12.5305 0 12 0C11.4694 0 10.9471 0.034875 10.4348 0.101578V10.4347V10.4347H0.101578C0.034875 10.9471 0 11.4695 0 12C0 12.5306 0.034875 13.0529 0.101578 13.5652H10.4347H10.4347V23.8984C10.9471 23.9651 11.4694 24 12 24C12.5305 24 13.0529 23.9652 13.5652 23.8984V13.5653V13.5653H23.8984C23.9651 13.0529 24 12.5306 24 12C24 11.4695 23.9651 10.9471 23.8984 10.4348Z" fill="#D80027"/>
    <path d="M15.1305 15.1305L20.4853 20.4854C20.7316 20.2392 20.9665 19.9818 21.1907 19.715L16.6062 15.1305H15.1305V15.1305Z" fill="#D80027"/>
    <path d="M8.86956 15.1305H8.86947L3.51471 20.4853C3.7609 20.7315 4.01829 20.9665 4.2851 21.1906L8.86956 16.6061V15.1305Z" fill="#D80027"/>
    <path d="M8.86945 8.86961V8.86951L3.51464 3.51465C3.26836 3.76084 3.03342 4.01823 2.80927 4.28504L7.39378 8.86956H8.86945V8.86961Z" fill="#D80027"/>
    <path d="M15.1305 8.86968L20.4854 3.51478C20.2392 3.2685 19.9818 3.03356 19.715 2.80945L15.1305 7.39396V8.86968Z" fill="#D80027"/>
  </symbol>

  <symbol id="russia" viewBox="0 0 24 24">
    <path d="M12 24C18.6274 24 24 18.6274 24 12C24 5.37258 18.6274 0 12 0C5.37258 0 0 5.37258 0 12C0 18.6274 5.37258 24 12 24Z" fill="#F0F0F0"/>
    <path d="M23.2536 16.1738C23.736 14.8738 24 13.4678 24 11.9999C24 10.5321 23.736 9.12603 23.2536 7.82605H0.746391C0.264047 9.12603 0 10.5321 0 11.9999C0 13.4678 0.264047 14.8738 0.746391 16.1738L12 17.2173L23.2536 16.1738Z" fill="#0052B4"/>
    <path d="M11.9999 24.0001C17.1595 24.0001 21.558 20.7436 23.2535 16.174H0.746277C2.44179 20.7436 6.84031 24.0001 11.9999 24.0001Z" fill="#D80027"/>
  </symbol>

  <symbol id="ukraine" viewBox="0 0 24 24">
    <path d="M12 24C18.6274 24 24 18.6274 24 12C24 5.37258 18.6274 0 12 0C5.37258 0 0 5.37258 0 12C0 18.6274 5.37258 24 12 24Z" fill="#FFDA44"/>
    <path d="M0 12C0 5.37262 5.37262 0 12 0C18.6274 0 24 5.37262 24 12" fill="#338AF3"/>
  </symbol>

  <symbol id="arabia" viewBox="0 0 24 24">
    <path d="M12 24C18.6274 24 24 18.6274 24 12C24 5.37258 18.6274 0 12 0C5.37258 0 0 5.37258 0 12C0 18.6274 5.37258 24 12 24Z" fill="#006233"/>
    <path fill-rule="evenodd" clip-rule="evenodd" d="M8.4862 12.5045C7.93696 13.2551 8.33351 13.7433 8.89972 13.778C9.27295 13.8031 10.0491 13.2976 10.047 12.7033L9.83492 12.5952C9.95367 12.9001 9.83068 12.9966 9.57832 13.205C9.07997 13.616 8.06207 13.6449 8.4862 12.5045Z" fill="white"/>
    <path fill-rule="evenodd" clip-rule="evenodd" d="M12.8398 14.4726C15.9317 14.5518 16.9156 11.8291 15.0071 9.49817L14.8183 9.7548C14.9413 10.8412 15.1195 11.9121 15.1364 13.0255C14.7632 13.4249 14.2203 13.2763 14.1122 12.8325C14.1185 12.2305 13.9022 11.7211 13.6287 11.2348L13.476 11.4914C13.6541 11.8909 13.8471 12.3404 13.8874 12.8325C13.0052 13.7954 12.0297 13.9902 12.3923 12.7244C11.6946 13.834 12.7507 14.6154 13.9468 12.9078C14.2034 14.0732 15.1958 13.3496 15.2552 13.0988C15.3633 12.3347 15.3082 11.1036 15.0898 10.1311C15.9508 11.4876 15.9804 12.4659 15.5224 13.12C15.0134 13.8475 13.9065 14.1871 12.8398 14.4726Z" fill="white"/>
    <path fill-rule="evenodd" clip-rule="evenodd" d="M14.5935 11.395C13.9319 11.4393 13.5926 11.3158 13.951 10.8701C14.3051 10.434 14.6359 10.7814 14.725 11.3641C14.8077 11.9102 13.5629 12.6067 13.1324 12.6067C12.4814 12.6067 12.1802 11.8445 12.7804 11.1595C12.0085 13.1586 14.4472 11.9989 14.5935 11.395ZM14.1355 10.9319C14.0549 10.928 13.9955 11.0573 14.0358 11.0824C14.1524 11.1557 14.3369 11.1113 14.356 11.0746C14.3963 10.9936 14.2479 10.9357 14.1355 10.9319Z" fill="white"/>
    <path fill-rule="evenodd" clip-rule="evenodd" d="M11.0011 12.3385C10.3649 13.477 10.999 13.9478 11.8154 13.8166C12.2905 13.7375 12.8927 13.4307 13.2405 13.0119C13.2469 12.0896 13.232 11.175 13.1429 10.2816C13.461 9.93618 13.1154 9.93811 12.9945 9.56763C12.9394 9.78374 12.8058 10.0172 12.9351 10.1851C13.0263 11.0862 13.0772 11.9989 13.0751 12.929C12.4347 13.3979 11.9533 13.5715 11.6097 13.5677C10.8993 13.5619 10.7466 13.0177 11.0011 12.3385Z" fill="white"/>
    <path fill-rule="evenodd" clip-rule="evenodd" d="M12.3011 12.6396C12.2905 11.7809 12.2756 10.8065 12.1908 10.2064C12.5216 9.87254 12.1738 9.86482 12.0657 9.49048C12.0021 9.70273 11.8621 9.93428 11.9851 10.106C12.0402 11.0245 12.0933 11.943 12.1039 12.8615C12.1802 12.8171 12.2672 12.7997 12.3011 12.6396Z" fill="white"/>
    <path fill-rule="evenodd" clip-rule="evenodd" d="M9.83269 12.5991C9.75211 12.5065 9.69485 12.4023 9.62911 12.3116C9.61851 12.1823 9.71394 12.0627 9.72666 11.997C9.83481 12.1495 9.89843 12.2653 9.98538 12.3405L9.83269 12.5991ZM10.0999 12.4003C10.2589 12.4582 10.454 12.4582 10.6343 12.4621C11.3299 12.4737 12.0615 12.3695 11.983 13.2262C11.9152 13.9864 11.2217 14.4264 10.6004 14.4206C9.71605 14.4129 8.96111 13.5253 10.3247 11.8909C10.4562 11.8716 10.6279 11.9044 10.77 11.916C11.0139 11.9334 11.2641 11.9121 11.5504 11.7037C11.5165 11.1654 11.5165 10.656 11.4444 10.1697C11.3214 9.998 11.4613 9.76838 11.525 9.5542C11.6331 9.92854 11.9788 9.93626 11.6501 10.272C11.7285 10.8123 11.737 11.3622 11.737 11.6902C11.5716 11.9199 11.4423 12.163 10.9587 12.2556C10.4646 12.19 10.242 11.561 9.72666 11.7694C9.86874 11.2021 11.1772 11.0728 11.3087 11.5204C11.2217 11.9874 10.0002 11.8002 9.67576 13.3092C9.57609 13.7742 10.1147 14.2026 10.6682 14.1678C11.209 14.135 11.7858 13.7935 11.8431 13.2185C11.8876 12.738 11.1432 12.794 10.8315 12.7998C10.3777 12.8094 10.0914 12.7457 9.91964 12.655L10.0999 12.4003ZM10.3841 11.615C10.4646 11.5455 10.7467 11.4973 10.8485 11.6092C10.7721 11.6555 10.6979 11.7057 10.6364 11.7655C10.5304 11.7153 10.4604 11.6652 10.3841 11.615Z" fill="white"/>
    <path fill-rule="evenodd" clip-rule="evenodd" d="M11.0754 10.0192C11.1518 10.1735 11.1836 10.2758 11.1878 10.4244C11.1412 10.6251 10.9524 10.8122 10.7573 10.818C10.6364 10.8219 10.5007 10.791 10.4053 10.6193C10.3947 10.598 10.3438 10.5479 10.295 10.571C10.0808 10.8913 9.92179 11.0264 9.72881 11.0245C9.34286 11.0187 9.45737 10.7061 9.10111 10.6096C8.95266 10.6058 8.70879 10.7428 8.58367 11.011C8.10865 12.2363 7.67604 11.0071 7.86054 10.436C7.88811 10.982 8.03231 11.3062 8.18075 11.2966C8.28891 11.2869 8.38433 11.0592 8.52217 10.8199C8.62821 10.6366 8.88268 10.3067 9.152 10.3067C9.398 10.3125 9.24319 10.7235 9.73518 10.7177C9.97269 10.7138 10.1911 10.5479 10.4117 10.216C10.4604 10.2083 10.4732 10.2874 10.4838 10.3144C10.5177 10.4282 10.734 10.7408 11.0266 10.4553C11.0118 10.3935 11.0182 10.2912 10.9439 10.27L11.0754 10.0192Z" fill="white"/>
    <path fill-rule="evenodd" clip-rule="evenodd" d="M12.6214 9.0042C12.3606 9.1219 12.1698 9.01384 12.0616 8.90965C12.2503 8.87491 12.3967 8.81317 12.4391 8.67809C12.3542 8.50443 12.1528 8.42918 11.8686 8.42725C11.489 8.43689 11.2939 8.57583 11.2706 8.76686C11.4466 8.77265 11.6057 8.72827 11.6735 8.88263C11.3618 9.02156 10.9949 9.07173 10.5962 9.0698C9.94309 9.10068 9.84766 8.83246 9.67589 8.59705C9.66317 8.58161 9.60591 8.55653 9.57622 8.56039C9.37476 8.56039 9.22632 9.20101 8.99941 9.19909C8.7725 9.17207 8.8234 8.78616 8.75766 8.56618C8.70252 8.91158 8.82764 10.1967 9.52957 8.80159C9.55077 8.75528 9.58046 8.76879 9.59955 8.80738C9.78828 9.19716 10.1721 9.33223 10.5856 9.35153C10.9313 9.36889 11.3724 9.23189 11.8453 8.98876C11.9704 9.11418 12.0701 9.25698 12.333 9.28399C12.6405 9.2975 12.9692 9.09489 13.0435 8.84404C13.0816 8.71476 13.088 8.46005 12.9374 8.45619C12.7275 8.4504 12.5748 8.91351 12.6236 9.3303C12.6278 9.32451 12.6511 9.2261 12.6511 9.2261L12.6214 9.0042ZM11.7223 8.67038C11.8601 8.61249 11.9937 8.58547 12.0998 8.71283C12.0171 8.73984 11.9662 8.75721 11.9216 8.79001C11.8623 8.74756 11.7817 8.72634 11.7223 8.67038ZM12.736 8.95789C12.7699 8.82088 12.789 8.7109 12.912 8.6395C12.9374 8.78422 12.9417 8.86526 12.736 8.95789Z" fill="white"/>
    <path fill-rule="evenodd" clip-rule="evenodd" d="M13.5631 9.17016C13.5228 9.05246 13.4825 8.95019 13.4698 8.82284C13.4401 8.56427 13.6839 8.41763 13.9045 8.43885C14.1314 8.46008 14.282 8.53726 14.4983 8.6048C14.6679 8.6569 14.8969 8.69742 15.1154 8.75337C15.2384 8.80354 15.1154 8.93476 15.0836 8.95212C14.5364 9.14701 14.1484 9.45574 13.8006 9.46924C13.5928 9.47889 13.4083 9.3554 13.2407 9.10262C13.2301 8.61251 13.211 8.0375 13.158 7.67667C13.2386 7.60335 13.2556 7.54932 13.2937 7.4895C13.3362 7.96611 13.3531 8.4678 13.3637 8.97334C13.4083 9.06017 13.4634 9.1335 13.5631 9.17016ZM13.913 9.20875C13.6203 9.284 13.6564 9.05824 13.6288 8.91931C13.597 8.75723 13.6182 8.57392 13.8451 8.62023C14.1399 8.69162 14.4092 8.78618 14.67 8.88651L13.913 9.20875Z" fill="white"/>
    <path fill-rule="evenodd" clip-rule="evenodd" d="M13.6265 9.448L13.6668 9.62745H13.6986L13.6858 9.45957" fill="white"/>
    <path fill-rule="evenodd" clip-rule="evenodd" d="M8.95905 11.3236L9.10749 11.1847L9.27927 11.3178L9.12022 11.4471L8.95905 11.3236Z" fill="white"/>
    <path fill-rule="evenodd" clip-rule="evenodd" d="M9.33661 11.2772L9.48717 11.1383L9.65894 11.2714L9.4999 11.4007L9.33661 11.2772Z" fill="white"/>
    <path fill-rule="evenodd" clip-rule="evenodd" d="M8.2868 9.83778L8.43737 9.69885L8.60914 9.83199L8.45009 9.96128L8.2868 9.83778Z" fill="white"/>
    <path fill-rule="evenodd" clip-rule="evenodd" d="M8.35461 10.2468L8.50518 10.1079L8.67484 10.241L8.51579 10.3703L8.35461 10.2468Z" fill="white"/>
    <path fill-rule="evenodd" clip-rule="evenodd" d="M11.0796 10.9319L11.2174 10.8296L11.3447 10.955L11.2005 11.0476L11.0796 10.9319Z" fill="white"/>
    <path fill-rule="evenodd" clip-rule="evenodd" d="M9.26025 8.31347L9.3578 8.22278L9.47019 8.30961L9.36628 8.39451L9.26025 8.31347Z" fill="white"/>
    <path fill-rule="evenodd" clip-rule="evenodd" d="M9.50824 8.28451L9.60579 8.19189L9.71818 8.28066L9.61427 8.36363L9.50824 8.28451Z" fill="white"/>
    <path fill-rule="evenodd" clip-rule="evenodd" d="M14.7167 9.32071L14.6234 9.3921L14.5343 9.30914L14.6319 9.24353L14.7167 9.32071Z" fill="white"/>
    <path fill-rule="evenodd" clip-rule="evenodd" d="M10.3267 11.8812L10.3161 12.0337L10.5833 12.0568L10.7975 11.9102L10.3267 11.8812Z" fill="white"/>
    <path fill-rule="evenodd" clip-rule="evenodd" d="M12.5854 9.03314L12.6639 9.0177L12.6554 9.21645L12.6066 9.23381L12.5854 9.03314Z" fill="white"/>
    <path d="M11.9999 17.034C15.0103 17.034 17.4597 14.8054 17.4597 12.0666C17.4597 10.5595 16.7208 9.21486 15.5577 8.30591C16.2555 9.05302 16.6797 10.0366 16.6797 11.1074C16.6797 13.486 14.586 15.4156 11.9999 15.4156C9.41364 15.4156 7.32 13.486 7.32 11.1074C7.32 10.0366 7.74418 9.05302 8.44202 8.30591C7.27891 9.21486 6.53998 10.5595 6.53998 12.0666C6.53998 14.8054 8.98947 17.034 11.9999 17.034Z" fill="white"/>
    <path fill-rule="evenodd" clip-rule="evenodd" d="M11.0788 19.8423C10.5423 19.5378 10.1683 19.0468 10.3033 18.7766C10.4982 18.3712 10.926 18.4757 11.3732 18.5848C11.5853 18.6366 11.8019 18.6894 12 18.6894C12.1981 18.6894 12.4147 18.6366 12.6268 18.5848C13.074 18.4757 13.5018 18.3712 13.6967 18.7766C13.8317 19.0468 13.4577 19.5378 12.9212 19.8423C12.9258 19.8546 12.9297 19.8668 12.933 19.8789C14.1021 20.3278 15.5157 20.1563 16.7207 19.4489C16.7754 19.424 16.8028 19.4614 16.7481 19.5983L16.7474 19.6C16.6109 19.9603 16.5024 20.2466 16.9123 20.7811C17.0902 21.0177 16.8849 21.0551 16.5839 21.0302C15.0932 20.8969 13.6283 20.5988 12.8821 20.342C12.8644 20.3837 12.8422 20.4235 12.8147 20.4623C13.2985 20.6332 14.0832 20.8359 14.9829 20.9803C15.3524 21.0302 15.3387 21.2418 14.6819 21.3165C14.0367 21.3764 13.214 20.9751 12.6896 20.6008C12.6201 20.6636 12.5329 20.7266 12.4242 20.7936C12.1242 20.9835 12.0729 20.5739 12.045 20.3518C12.0436 20.3409 12.0423 20.3304 12.041 20.3205C12.041 20.2707 11.9726 20.2458 11.9589 20.3205C11.954 20.346 11.9492 20.3752 11.9441 20.4065C11.9071 20.6338 11.8525 20.9687 11.5758 20.7936C11.4671 20.7266 11.3799 20.6636 11.3104 20.6008C10.786 20.9751 9.96332 21.3764 9.31808 21.3165C8.66129 21.2418 8.64761 21.0302 9.01705 20.9803C9.90362 20.8359 10.7006 20.6332 11.1853 20.4623C11.1578 20.4235 11.1356 20.3837 11.1179 20.342C10.3717 20.5988 8.90683 20.8969 7.41611 21.0302C7.11508 21.0551 6.90983 21.0177 7.08771 20.7811C7.49758 20.2466 7.38908 19.9603 7.25254 19.6L7.25191 19.5983C7.19718 19.4614 7.22455 19.424 7.27928 19.4489C8.48432 20.1563 9.89795 20.3278 11.067 19.8789C11.0702 19.8668 11.0742 19.8546 11.0788 19.8423ZM12 19.2497C12.1022 19.2497 12.2573 19.2256 12.4324 19.1984C12.5388 19.1819 12.6525 19.1642 12.7663 19.1501C13.1279 19.0939 13.0859 19.3998 12.7648 19.6244C12.6101 19.4852 12.3551 19.3742 12 19.3742C11.6449 19.3742 11.3899 19.4852 11.2352 19.6244C10.9141 19.3998 10.8721 19.0939 11.2337 19.1501C11.3475 19.1642 11.4612 19.1819 11.5676 19.1984C11.7427 19.2256 11.8978 19.2497 12 19.2497Z" fill="white" stroke="black" stroke-width="0.1"/>
    <path fill-rule="evenodd" clip-rule="evenodd" d="M12 3.37268C11.957 3.34132 11.9199 3.30927 11.8905 3.27559C11.6853 3.05148 11.6716 3.17598 11.74 3.43745C11.7464 3.4641 11.7538 3.49096 11.7621 3.51799C11.7452 3.52726 11.7281 3.53659 11.7108 3.54602C11.4624 3.30945 11.132 3.13198 10.8842 2.99891C10.7214 2.91152 10.5944 2.84328 10.5496 2.79001C10.3443 2.5659 10.317 2.70286 10.4128 2.96432C10.4714 3.14917 10.5808 3.34486 10.7147 3.53037C10.4865 3.44636 10.2533 3.3915 10.0653 3.34728C9.893 3.30674 9.75869 3.27515 9.70122 3.23824C9.42756 3.07638 9.46861 3.23824 9.56439 3.48725C9.68741 3.77829 9.94315 3.99133 10.226 4.14447C9.99401 4.20387 9.73266 4.31872 9.51484 4.60257C9.47383 4.44455 9.34043 4.44242 9.19495 4.63271C9.05307 4.8144 8.70738 4.97406 8.33612 5.14553C7.74061 5.42056 7.0793 5.72599 7.08773 6.20149L7.08772 6.20619L7.0877 6.20985V6.20994C7.08748 6.25536 7.08721 6.3085 7.14275 6.33821L7.14246 6.33844C7.06501 6.39717 6.96322 6.47805 7.30798 6.56019C7.238 6.58587 7.14697 6.60752 7.04022 6.63292L7.04015 6.63294C6.95476 6.65325 6.8593 6.67597 6.75652 6.70504C6.85562 6.56083 6.93749 6.40819 6.99194 6.25129C7.19719 5.65366 6.95089 5.57896 6.71828 5.82797C6.66198 5.88489 6.56636 5.94311 6.44858 6.01482C6.07751 6.24075 5.48648 6.60062 5.21202 7.4757C5.20488 7.38366 5.18765 7.29072 5.15839 7.19754C5.08997 6.96098 4.96682 6.96098 4.84367 7.18509C4.82068 7.23216 4.75544 7.29131 4.67102 7.36785C4.42108 7.59446 4.00303 7.97349 4.01561 8.64263C3.9578 8.67265 3.88038 8.73063 3.79007 8.80367C3.54377 9.01533 2.75014 9.97403 3.42062 11.3934C3.53179 11.6325 3.57578 11.5524 3.66835 11.3838C3.6938 11.3375 3.72291 11.2844 3.75811 11.2295C3.74503 11.3758 3.74993 11.5266 3.77638 11.6798C3.7781 11.6907 3.77939 11.7045 3.78079 11.7194C3.79052 11.8231 3.80567 11.9845 4.00899 11.6798C4.07274 11.5831 4.1759 11.4664 4.29428 11.3325C4.63327 10.949 5.09705 10.4244 5.11734 9.82462C5.11734 9.56316 5.10365 9.51335 4.76157 9.70011C4.5228 9.82643 4.29079 10.0327 4.10944 10.2915C4.14462 9.97553 4.12206 9.66329 4.10273 9.39573C4.09503 9.28925 4.08785 9.18984 4.08502 9.1001C4.09855 9.14946 4.11421 9.20005 4.13215 9.25189C4.15951 9.36395 4.18688 9.4511 4.33739 9.27679C4.35336 9.25698 4.37858 9.22875 4.41054 9.19297C4.45518 9.14299 4.51298 9.07828 4.57713 9.00119C4.48944 9.17152 4.41206 9.37676 4.35109 9.62541C4.31004 9.84952 4.47423 9.76237 4.61107 9.68766C4.63968 9.67139 4.67057 9.65406 4.70336 9.63566L4.70351 9.63557C5.17241 9.37244 6.02761 8.89255 6.12991 8.20604C6.15627 8.03015 6.15441 7.9056 6.08812 7.89502C6.56676 7.73997 7.13772 7.44424 7.47085 7.02323C7.62663 6.83576 7.69568 6.69698 7.70509 6.60506C8.20255 6.61072 8.94754 6.48238 9.46861 6.12678C9.69211 5.97035 9.798 5.84667 9.82047 5.76124C10.4138 5.85678 11.1 5.63176 11.6716 5.26769C11.7674 5.20544 11.8769 5.05603 11.6306 5.11828C11.5375 5.14297 11.4039 5.1137 11.2358 5.0769C11.1414 5.05623 11.0361 5.03318 10.9211 5.01598C10.9516 5.00244 10.9862 4.98501 11.0249 4.9643C11.3525 5.04983 11.698 5.07786 12 5.0703C12.3021 5.07786 12.6475 5.04983 12.9751 4.9643C13.0138 4.98501 13.0484 5.00244 13.079 5.01598C12.9639 5.03317 12.8586 5.05623 12.7642 5.0769C12.5962 5.1137 12.4625 5.14297 12.3695 5.11828C12.1232 5.05603 12.2326 5.20544 12.3284 5.26769C12.9 5.63176 13.5862 5.85679 14.1796 5.76124C14.202 5.84667 14.3079 5.97035 14.5314 6.12678C15.0525 6.48238 15.7975 6.61072 16.2949 6.60506C16.3043 6.69698 16.3734 6.83576 16.5292 7.02323C16.8623 7.44424 17.4333 7.73997 17.9119 7.89502C17.8456 7.90561 17.8438 8.03016 17.8701 8.20604C17.9724 8.89255 18.8276 9.37244 19.2965 9.63557C19.3294 9.654 19.3603 9.67137 19.389 9.68766C19.5258 9.76237 19.69 9.84952 19.649 9.62541C19.588 9.37678 19.5106 9.17155 19.4229 9.00123C19.4871 9.0783 19.5448 9.143 19.5895 9.19297C19.6214 9.22874 19.6467 9.25698 19.6626 9.27679C19.8131 9.4511 19.8405 9.36395 19.8679 9.25189C19.8858 9.20004 19.9015 9.14944 19.915 9.10007C19.9122 9.1898 19.905 9.2892 19.8973 9.39566L19.8973 9.39573C19.878 9.66329 19.8554 9.97554 19.8906 10.2915C19.7092 10.0327 19.4772 9.82643 19.2385 9.70011C18.8964 9.51335 18.8827 9.56316 18.8827 9.82462C18.903 10.4244 19.3667 10.949 19.7057 11.3325C19.8241 11.4664 19.9273 11.5831 19.991 11.6798C20.1944 11.9845 20.2095 11.8231 20.2192 11.7194L20.2192 11.7193L20.2192 11.7193L20.2192 11.7192C20.2206 11.7044 20.2219 11.6907 20.2236 11.6798C20.2501 11.5266 20.255 11.3758 20.2419 11.2295C20.2771 11.2844 20.3062 11.3374 20.3317 11.3838C20.4242 11.5524 20.4682 11.6325 20.5794 11.3934C21.2499 9.97403 20.4563 9.01533 20.21 8.80367C20.1197 8.73063 20.0422 8.67265 19.9844 8.64262C19.997 7.97348 19.5789 7.59446 19.329 7.36785C19.2446 7.29131 19.1793 7.23216 19.1564 7.18509C19.0332 6.96098 18.9101 6.96098 18.8416 7.19754C18.8124 7.29071 18.7951 7.38366 18.788 7.4757C18.5135 6.60062 17.9225 6.24075 17.5514 6.01482C17.4337 5.94311 17.338 5.88489 17.2817 5.82797C17.0491 5.57896 16.8028 5.65366 17.0081 6.25129C17.0625 6.40819 17.1444 6.56083 17.2435 6.70504C17.1407 6.67596 17.0453 6.65325 16.9599 6.63294L16.9598 6.63292C16.8531 6.60753 16.762 6.58587 16.692 6.56019C17.0368 6.47805 16.935 6.39717 16.8576 6.33844L16.8573 6.33821C16.9128 6.3085 16.9126 6.25536 16.9123 6.20994V6.20976L16.9123 6.20508L16.9123 6.20149C16.9207 5.72599 16.2594 5.42056 15.6639 5.14553C15.2926 4.97406 14.947 4.8144 14.8051 4.63271C14.6596 4.44241 14.5262 4.44455 14.4852 4.60258C14.2674 4.31873 14.006 4.20387 13.7741 4.14447C14.0569 3.99133 14.3126 3.77829 14.4356 3.48725C14.5314 3.23824 14.5725 3.07638 14.2988 3.23824C14.2413 3.27515 14.107 3.30674 13.9347 3.34728C13.7467 3.3915 13.5135 3.44636 13.2853 3.53037C13.4193 3.34486 13.5286 3.14917 13.5873 2.96432C13.683 2.70286 13.6557 2.5659 13.4504 2.79001C13.4057 2.84328 13.2786 2.91152 13.1159 2.99891C12.8681 3.13198 12.5376 3.30945 12.2892 3.54602C12.2719 3.53659 12.2548 3.52726 12.2379 3.51799C12.2463 3.49096 12.2536 3.4641 12.26 3.43745C12.3284 3.17598 12.3147 3.05148 12.1095 3.27559C12.0801 3.30927 12.043 3.34132 12 3.37268ZM5.64489 8.12029C5.44016 8.19255 5.16349 8.2902 4.90756 8.54276C5.00907 8.37457 5.09991 8.18659 5.15626 7.98703C5.19853 8.01491 5.29732 8.03015 5.50047 8.01928C5.63276 8.0122 5.80932 7.97894 6.00559 7.92065C5.97873 7.93699 5.94736 7.96127 5.91098 7.99438C5.85885 8.04477 5.76406 8.07823 5.64489 8.12029ZM5.19606 7.81028L5.19726 7.80858L5.19637 7.80841L5.19606 7.81028ZM9.18292 5.65931C9.10011 5.65844 9.00796 5.65748 8.90755 5.6606C9.02614 5.57201 9.1342 5.47891 9.22522 5.38378C9.26027 5.42624 9.33352 5.41694 9.41172 5.39622C9.40788 5.39901 9.40404 5.40182 9.4002 5.40465C9.21687 5.53571 9.22152 5.56416 9.45012 5.65366C9.37747 5.66136 9.28766 5.66042 9.18292 5.65931ZM10.7367 4.99526C10.5633 4.98268 10.372 4.98958 10.166 5.03808C10.2927 4.95914 10.4184 4.87145 10.5323 4.77858C10.5424 4.78388 10.5527 4.78921 10.5633 4.79456C10.6142 4.81991 10.6665 4.84324 10.72 4.86465C10.7217 4.89056 10.7242 4.91699 10.7275 4.94397C10.7291 4.96417 10.7321 4.9812 10.7367 4.99526ZM13.4368 4.79456C13.3858 4.81991 13.3335 4.84324 13.2801 4.86465C13.2783 4.89056 13.2758 4.91699 13.2726 4.94397C13.271 4.96417 13.2679 4.9812 13.2633 4.99526C13.4368 4.98268 13.628 4.98958 13.834 5.03808C13.7073 4.95914 13.5816 4.87145 13.4677 4.77858C13.4576 4.78388 13.4473 4.78921 13.4368 4.79456ZM17.9945 7.92066C18.0213 7.937 18.0527 7.96127 18.0891 7.99438C18.1412 8.04477 18.236 8.07823 18.3551 8.12029C18.5599 8.19254 18.8365 8.29019 19.0924 8.54273C18.9909 8.37455 18.9001 8.18658 18.8438 7.98703C18.8015 8.01491 18.7027 8.03015 18.4996 8.01928C18.3673 8.0122 18.1907 7.97894 17.9945 7.92066ZM18.8028 7.80858L18.8036 7.80841L18.804 7.81028L18.8028 7.80858ZM14.5499 5.65366C14.6226 5.66136 14.7123 5.66042 14.8171 5.65931C14.8999 5.65844 14.9921 5.65747 15.0925 5.6606C14.9739 5.572 14.8658 5.47891 14.7748 5.38378C14.7398 5.42625 14.6665 5.41694 14.5883 5.39622C14.5921 5.39901 14.596 5.40182 14.5998 5.40465C14.7832 5.53571 14.7785 5.56416 14.5499 5.65366Z" fill="white"/>
    <path d="M20.1506 12.1035C20.385 11.5832 20.754 11.2687 20.9215 11.1693C21.2225 10.9701 21.4141 10.8954 21.2773 11.2066C21.2107 11.3561 21.1887 11.5919 21.1629 11.8701C21.1089 12.4494 21.038 13.2122 20.511 13.759C20.4513 13.8254 20.4004 13.8925 20.3563 13.9508C20.2183 14.133 20.1457 14.2288 20.0731 13.9458C20.0464 13.8565 20.0241 13.7692 20.0059 13.6841C19.9869 13.6628 19.9661 13.6369 19.9432 13.6079C19.9707 13.8984 19.9979 14.2374 19.9595 14.5725C20.0764 14.4712 20.1927 14.3822 20.299 14.3009C20.4332 14.1983 20.5513 14.1079 20.6341 14.0205C20.9182 13.7189 20.9054 13.8925 20.8967 14.0093C20.8954 14.0275 20.8941 14.0444 20.8941 14.0578C20.8941 15.0539 20.2236 15.8632 19.5121 16.1122C19.1016 16.2491 19.1016 16.2118 19.1564 15.913C19.1881 15.727 19.2407 15.5606 19.3077 15.4107C19.2907 15.3825 19.2723 15.3508 19.2521 15.3154C18.9469 14.7367 18.9372 13.7816 19.5307 13.0698C19.3003 12.6463 19.2551 12.1566 19.2193 11.7681C19.1981 11.538 19.1802 11.3434 19.129 11.2191C19.0058 10.9576 19.17 11.0199 19.43 11.1817C19.5879 11.2751 19.9507 11.584 20.1506 12.1035Z" fill="white"/>
    <path fill-rule="evenodd" clip-rule="evenodd" d="M19.021 15.2106C19.102 15.6212 19.1911 16.0725 18.7553 16.6169C18.9065 16.5525 19.0529 16.4981 19.1885 16.4478C19.3842 16.3752 19.5574 16.311 19.69 16.2367C20.1243 15.9952 20.0374 16.1989 19.9826 16.3273C19.9753 16.3445 19.9685 16.3604 19.9637 16.3737C19.5668 17.4693 18.5132 18.1416 17.6238 18.179C17.3625 18.1915 17.2359 18.1883 17.1973 18.1409C17.0645 18.236 16.9099 18.3268 16.7297 18.4112C17.1421 18.3458 17.5628 18.3252 17.9522 18.3658C18.1027 18.3782 18.3217 18.4903 18.0206 18.5525C17.8531 18.5888 17.6565 18.7298 17.4132 18.9044C16.8219 19.3286 15.9548 19.9507 14.5588 19.7478C14.4315 19.732 14.358 19.714 14.3311 19.6796C14.0711 19.7729 13.8137 19.8312 13.5736 19.8474C13.0536 19.8847 13.0536 19.8349 13.2452 19.5237C13.8978 18.4457 14.904 18.0246 15.6097 17.7292L15.6098 17.7292C15.8659 17.622 16.0824 17.5314 16.2281 17.432C16.5588 17.2019 16.6061 17.3366 16.591 17.474C16.8617 16.9591 17.3825 16.4987 17.9894 16.1637C18.0249 15.6262 18.2193 14.9773 18.7048 14.5434C18.8416 14.4189 18.9921 14.3318 18.9648 14.6804C18.9503 14.8521 18.9848 15.0273 19.021 15.2106ZM16.4221 17.9365C16.305 18.1655 16.1496 18.3835 15.9676 18.5848C16.1169 18.5401 16.2713 18.5006 16.4284 18.4672C16.3978 18.4276 16.3923 18.3431 16.3923 18.2039C16.3938 18.1141 16.404 18.0248 16.4221 17.9365ZM18.0356 16.8332C18.019 16.9056 17.9999 16.9817 17.976 17.0602C18.0119 17.0325 18.0481 17.0059 18.0845 16.9804C18.0765 16.9632 18.0689 16.9437 18.0617 16.9215C18.0523 16.8944 18.0436 16.8649 18.0356 16.8332Z" fill="white"/>
    <path d="M3.07854 11.1693C3.24603 11.2687 3.61507 11.5832 3.84942 12.1035C4.04935 11.5839 4.41213 11.2751 4.57001 11.1817C4.82999 11.0199 4.99419 10.9576 4.87104 11.2191C4.81981 11.3434 4.80188 11.538 4.78068 11.7681C4.74488 12.1566 4.69976 12.6463 4.4693 13.0698C5.06283 13.7816 5.05314 14.7367 4.74789 15.3154C4.72775 15.3508 4.70932 15.3825 4.69228 15.4106C4.75935 15.5605 4.81188 15.727 4.84368 15.913C4.89841 16.2118 4.89841 16.2491 4.48792 16.1122C3.77639 15.8632 3.10591 15.0539 3.10591 14.0578C3.10591 14.0444 3.10466 14.0275 3.10331 14.0093C3.09467 13.8925 3.08183 13.7189 3.36589 14.0205C3.44872 14.1079 3.56686 14.1983 3.70106 14.3009C3.80731 14.3822 3.92364 14.4711 4.04048 14.5725C4.00208 14.2374 4.0293 13.8984 4.0568 13.6079C4.0339 13.6369 4.01314 13.6628 3.99411 13.6841C3.97595 13.7692 3.95367 13.8565 3.9269 13.9458C3.84499 14.2253 3.7784 14.1353 3.64686 13.9575C3.60262 13.8977 3.55103 13.828 3.48904 13.759C2.96207 13.2122 2.89109 12.4494 2.83718 11.8701C2.8113 11.5919 2.78935 11.3561 2.72278 11.2066C2.58594 10.8954 2.77751 10.9701 3.07854 11.1693Z" fill="white"/>
    <path fill-rule="evenodd" clip-rule="evenodd" d="M5.24471 16.6169C4.80896 16.0726 4.89802 15.6212 4.97902 15.2106C5.01519 15.0273 5.04976 14.8521 5.03525 14.6804C5.00788 14.3318 5.1584 14.4189 5.29523 14.5434C5.78075 14.9773 5.97512 15.6262 6.01059 16.1637C6.61754 16.4987 7.13836 16.959 7.40904 17.474C7.39398 17.3366 7.44126 17.2019 7.77189 17.432C7.91763 17.5314 8.13418 17.622 8.3903 17.7292C9.09607 18.0246 10.1023 18.4457 10.7548 19.5237C10.9464 19.8349 10.9464 19.8847 10.4264 19.8474C10.1863 19.8312 9.92891 19.7729 9.66889 19.6796C9.64201 19.714 9.56854 19.732 9.44125 19.7478C8.04524 19.9507 7.17811 19.3286 6.5868 18.9044C6.34351 18.7298 6.14691 18.5888 5.97938 18.5525C5.67835 18.4903 5.89729 18.3782 6.0478 18.3658C6.43724 18.3252 6.85796 18.3458 7.27036 18.4113C7.0901 18.3268 6.93556 18.236 6.80271 18.1409C6.76409 18.1883 6.63756 18.1915 6.3762 18.179C5.48679 18.1416 4.43318 17.4693 4.03637 16.3737C4.03151 16.3604 4.02475 16.3445 4.0174 16.3273C3.96262 16.1989 3.87569 15.9952 4.31003 16.2367C4.44265 16.311 4.61582 16.3752 4.81149 16.4478L4.81156 16.4478C4.94714 16.4982 5.09353 16.5525 5.24471 16.6169ZM8.03248 18.5848C7.85044 18.3835 7.69499 18.1655 7.57793 17.9365C7.59604 18.0248 7.6062 18.1141 7.6077 18.2039C7.6077 18.3431 7.60222 18.4276 7.57168 18.4672C7.72874 18.5006 7.8831 18.5401 8.03248 18.5848ZM6.02405 17.0602C6.00014 16.9817 5.98099 16.9056 5.96442 16.8331C5.95646 16.8649 5.94774 16.8944 5.93834 16.9215C5.93117 16.9437 5.92355 16.9632 5.91553 16.9804C5.95195 17.0059 5.98815 17.0325 6.02405 17.0602Z" fill="white"/>
    <path fill-rule="evenodd" clip-rule="evenodd" d="M12 3.37268C11.957 3.34132 11.9199 3.30927 11.8905 3.27559C11.6853 3.05148 11.6716 3.17598 11.74 3.43745C11.7464 3.4641 11.7538 3.49096 11.7621 3.51799C11.7452 3.52726 11.7281 3.53659 11.7108 3.54602C11.4624 3.30945 11.132 3.13198 10.8842 2.99891C10.7214 2.91152 10.5944 2.84328 10.5496 2.79001C10.3443 2.5659 10.317 2.70286 10.4128 2.96432C10.4714 3.14917 10.5808 3.34486 10.7147 3.53037C10.4865 3.44636 10.2533 3.3915 10.0653 3.34728C9.893 3.30674 9.75869 3.27515 9.70122 3.23824C9.42756 3.07638 9.46861 3.23824 9.56439 3.48725C9.68741 3.77829 9.94315 3.99133 10.226 4.14447C9.99401 4.20387 9.73266 4.31872 9.51484 4.60257C9.47383 4.44455 9.34043 4.44242 9.19495 4.63271C9.05307 4.8144 8.70738 4.97406 8.33612 5.14553C7.74061 5.42056 7.0793 5.72599 7.08773 6.20149L7.08772 6.20619L7.0877 6.20985V6.20994C7.08748 6.25536 7.08722 6.3085 7.14275 6.33821L7.14246 6.33844C7.06501 6.39717 6.96322 6.47805 7.30798 6.56019C7.238 6.58587 7.14697 6.60752 7.04022 6.63292L7.04015 6.63294C6.95476 6.65325 6.8593 6.67597 6.75652 6.70504C6.85562 6.56083 6.93749 6.40819 6.99194 6.25129C7.19719 5.65366 6.95089 5.57896 6.71828 5.82797C6.66198 5.88489 6.56636 5.94311 6.44858 6.01482C6.07751 6.24075 5.48648 6.60062 5.21202 7.4757C5.20488 7.38366 5.18765 7.29072 5.15839 7.19754C5.08997 6.96098 4.96682 6.96098 4.84367 7.18509C4.82068 7.23216 4.75544 7.29131 4.67102 7.36785C4.42108 7.59446 4.00303 7.97349 4.01561 8.64263C3.9578 8.67265 3.88038 8.73063 3.79007 8.80367C3.54377 9.01533 2.75014 9.97403 3.42062 11.3934C3.53179 11.6325 3.57578 11.5524 3.66835 11.3838C3.6938 11.3375 3.72291 11.2844 3.75811 11.2295C3.74503 11.3758 3.74993 11.5266 3.77638 11.6798C3.7781 11.6907 3.77939 11.7045 3.78079 11.7194C3.79052 11.8231 3.80567 11.9845 4.00899 11.6798C4.07274 11.5831 4.1759 11.4664 4.29428 11.3325C4.63327 10.949 5.09705 10.4244 5.11734 9.82462C5.11734 9.56316 5.10365 9.51335 4.76157 9.70011C4.5228 9.82643 4.29079 10.0327 4.10944 10.2915C4.14462 9.97553 4.12206 9.66329 4.10273 9.39573C4.09503 9.28925 4.08785 9.18984 4.08502 9.1001C4.09855 9.14946 4.11421 9.20005 4.13215 9.25189C4.15951 9.36395 4.18688 9.4511 4.33739 9.27679C4.35336 9.25698 4.37858 9.22875 4.41054 9.19297C4.45518 9.14299 4.51298 9.07828 4.57713 9.00119C4.48944 9.17152 4.41206 9.37676 4.35109 9.62541C4.31004 9.84952 4.47423 9.76237 4.61107 9.68766C4.63968 9.67139 4.67057 9.65406 4.70336 9.63566L4.70351 9.63557C5.17241 9.37244 6.02761 8.89255 6.12991 8.20604C6.15627 8.03015 6.15441 7.9056 6.08812 7.89502C6.56676 7.73997 7.13772 7.44424 7.47085 7.02323C7.62663 6.83576 7.69568 6.69698 7.70509 6.60506C8.20255 6.61072 8.94754 6.48238 9.46861 6.12678C9.69211 5.97035 9.798 5.84667 9.82047 5.76124C10.4138 5.85678 11.1 5.63176 11.6716 5.26769C11.7674 5.20544 11.8769 5.05603 11.6306 5.11828C11.5375 5.14297 11.4039 5.1137 11.2358 5.0769C11.1414 5.05623 11.0361 5.03318 10.9211 5.01598C10.9516 5.00244 10.9862 4.98501 11.0249 4.9643C11.3525 5.04983 11.698 5.07786 12 5.0703C12.3021 5.07786 12.6475 5.04983 12.9751 4.9643C13.0138 4.98501 13.0484 5.00244 13.079 5.01598C12.9639 5.03318 12.8586 5.05623 12.7642 5.0769C12.5962 5.1137 12.4625 5.14297 12.3695 5.11828C12.1232 5.05603 12.2326 5.20544 12.3284 5.26769C12.9 5.63176 13.5862 5.85679 14.1796 5.76124C14.202 5.84667 14.3079 5.97035 14.5314 6.12678C15.0525 6.48238 15.7975 6.61072 16.2949 6.60506C16.3043 6.69698 16.3734 6.83576 16.5292 7.02323C16.8623 7.44424 17.4333 7.73997 17.9119 7.89502C17.8456 7.90561 17.8438 8.03016 17.8701 8.20604C17.9724 8.89255 18.8276 9.37244 19.2965 9.63557C19.3294 9.654 19.3603 9.67137 19.389 9.68766C19.5258 9.76237 19.69 9.84952 19.649 9.62541C19.588 9.37678 19.5106 9.17155 19.4229 9.00123C19.4871 9.0783 19.5448 9.143 19.5895 9.19297C19.6214 9.22874 19.6467 9.25698 19.6626 9.27679C19.8131 9.4511 19.8405 9.36395 19.8679 9.25189C19.8858 9.20004 19.9015 9.14944 19.915 9.10007C19.9122 9.1898 19.905 9.2892 19.8973 9.39566L19.8973 9.39573C19.878 9.66329 19.8554 9.97554 19.8906 10.2915C19.7092 10.0327 19.4772 9.82643 19.2385 9.70011C18.8964 9.51335 18.8827 9.56316 18.8827 9.82462C18.903 10.4244 19.3667 10.949 19.7057 11.3325C19.8241 11.4664 19.9273 11.5831 19.991 11.6798C20.1944 11.9845 20.2095 11.8231 20.2192 11.7194L20.2192 11.7193L20.2192 11.7193L20.2192 11.7192C20.2206 11.7044 20.2219 11.6907 20.2236 11.6798C20.2501 11.5266 20.255 11.3758 20.2419 11.2295C20.2771 11.2844 20.3062 11.3374 20.3317 11.3838C20.4242 11.5524 20.4682 11.6325 20.5794 11.3934C21.2499 9.97403 20.4563 9.01533 20.21 8.80367C20.1197 8.73063 20.0422 8.67265 19.9844 8.64262C19.997 7.97348 19.5789 7.59446 19.329 7.36785C19.2446 7.29131 19.1793 7.23216 19.1564 7.18509C19.0332 6.96098 18.9101 6.96098 18.8416 7.19754C18.8124 7.29071 18.7951 7.38366 18.788 7.4757C18.5135 6.60062 17.9225 6.24075 17.5514 6.01482C17.4337 5.94311 17.338 5.88489 17.2817 5.82797C17.0491 5.57896 16.8028 5.65366 17.0081 6.25129C17.0625 6.40819 17.1444 6.56083 17.2435 6.70504C17.1407 6.67596 17.0453 6.65325 16.9599 6.63294L16.9598 6.63292C16.8531 6.60753 16.762 6.58587 16.692 6.56019C17.0368 6.47805 16.935 6.39717 16.8576 6.33844L16.8573 6.33821C16.9128 6.3085 16.9126 6.25536 16.9123 6.20994V6.20976L16.9123 6.20508L16.9123 6.20149C16.9207 5.72599 16.2594 5.42056 15.6639 5.14553C15.2926 4.97406 14.947 4.8144 14.8051 4.63271C14.6596 4.44241 14.5262 4.44455 14.4852 4.60258C14.2674 4.31873 14.006 4.20387 13.7741 4.14447C14.0569 3.99133 14.3126 3.77829 14.4356 3.48725C14.5314 3.23824 14.5725 3.07638 14.2988 3.23824C14.2413 3.27515 14.107 3.30674 13.9347 3.34728C13.7467 3.3915 13.5135 3.44636 13.2853 3.53037C13.4193 3.34486 13.5286 3.14917 13.5873 2.96432C13.683 2.70286 13.6557 2.5659 13.4504 2.79001C13.4057 2.84328 13.2786 2.91152 13.1159 2.99891C12.8681 3.13198 12.5376 3.30945 12.2892 3.54602C12.2719 3.53659 12.2548 3.52726 12.2379 3.51799C12.2463 3.49096 12.2536 3.4641 12.26 3.43745C12.3284 3.17598 12.3147 3.05148 12.1095 3.27559C12.0801 3.30927 12.043 3.34132 12 3.37268ZM5.64489 8.12029C5.44016 8.19255 5.16349 8.2902 4.90756 8.54276C5.00907 8.37457 5.09991 8.18659 5.15626 7.98703C5.19853 8.01491 5.29732 8.03015 5.50047 8.01928C5.63276 8.0122 5.80932 7.97894 6.00559 7.92065C5.97873 7.93699 5.94736 7.96127 5.91098 7.99438C5.85885 8.04477 5.76406 8.07823 5.64489 8.12029ZM5.19606 7.81028L5.19726 7.80858L5.19637 7.80841L5.19606 7.81028ZM9.18292 5.65931C9.10011 5.65844 9.00796 5.65748 8.90755 5.6606C9.02614 5.57201 9.1342 5.47891 9.22522 5.38378C9.26027 5.42624 9.33352 5.41694 9.41172 5.39622C9.40788 5.39901 9.40404 5.40182 9.4002 5.40465C9.21687 5.53571 9.22152 5.56416 9.45012 5.65366C9.37747 5.66136 9.28766 5.66042 9.18292 5.65931ZM10.7367 4.99526C10.5633 4.98268 10.372 4.98958 10.166 5.03808C10.2927 4.95914 10.4184 4.87145 10.5323 4.77859C10.5424 4.78388 10.5527 4.78921 10.5633 4.79456C10.6142 4.81991 10.6665 4.84324 10.72 4.86465C10.7217 4.89056 10.7242 4.91699 10.7275 4.94397C10.7291 4.96417 10.7321 4.9812 10.7367 4.99526ZM13.4368 4.79456C13.3858 4.81991 13.3335 4.84324 13.2801 4.86465C13.2783 4.89056 13.2758 4.91699 13.2726 4.94397C13.271 4.96417 13.2679 4.9812 13.2633 4.99526C13.4368 4.98268 13.628 4.98958 13.834 5.03808C13.7073 4.95914 13.5816 4.87145 13.4677 4.77858C13.4576 4.78388 13.4473 4.7892 13.4368 4.79456ZM17.9945 7.92066C18.0213 7.937 18.0527 7.96127 18.0891 7.99438C18.1412 8.04477 18.236 8.07823 18.3551 8.12029C18.5599 8.19254 18.8365 8.29019 19.0924 8.54273C18.9909 8.37455 18.9001 8.18658 18.8438 7.98703C18.8015 8.01491 18.7027 8.03015 18.4996 8.01928C18.3673 8.0122 18.1907 7.97894 17.9945 7.92066ZM18.8028 7.80858L18.8037 7.80841L18.804 7.81028L18.8028 7.80858ZM14.5499 5.65366C14.6226 5.66136 14.7123 5.66042 14.8171 5.65931C14.8999 5.65844 14.9921 5.65747 15.0925 5.6606C14.9739 5.572 14.8658 5.47891 14.7748 5.38378C14.7398 5.42625 14.6665 5.41694 14.5883 5.39622C14.5921 5.39901 14.596 5.40182 14.5998 5.40465C14.7832 5.53571 14.7785 5.56416 14.5499 5.65366Z" stroke="black" stroke-width="0.1"/>
    <path d="M20.1506 12.1035C20.385 11.5832 20.754 11.2687 20.9215 11.1693C21.2225 10.9701 21.4141 10.8954 21.2773 11.2066C21.2107 11.3561 21.1887 11.5919 21.1629 11.8701C21.1089 12.4494 21.038 13.2122 20.511 13.759C20.4513 13.8254 20.4004 13.8925 20.3563 13.9508C20.2183 14.133 20.1457 14.2288 20.0731 13.9458C20.0464 13.8565 20.0241 13.7692 20.0059 13.6841C19.9869 13.6628 19.9661 13.6369 19.9432 13.6079C19.9707 13.8984 19.9979 14.2374 19.9595 14.5725C20.0764 14.4712 20.1927 14.3822 20.299 14.3009C20.4332 14.1983 20.5513 14.1079 20.6341 14.0205C20.9182 13.7189 20.9054 13.8925 20.8967 14.0093C20.8954 14.0275 20.8941 14.0444 20.8941 14.0578C20.8941 15.0539 20.2236 15.8632 19.5121 16.1122C19.1016 16.2491 19.1016 16.2118 19.1564 15.913C19.1881 15.727 19.2407 15.5606 19.3077 15.4107C19.2907 15.3825 19.2723 15.3508 19.2521 15.3154C18.9469 14.7367 18.9372 13.7816 19.5307 13.0698C19.3003 12.6463 19.2551 12.1566 19.2193 11.7681C19.1981 11.538 19.1802 11.3434 19.129 11.2191C19.0058 10.9576 19.17 11.0199 19.43 11.1817C19.5879 11.2751 19.9507 11.584 20.1506 12.1035Z" stroke="black" stroke-width="0.1"/>
    <path fill-rule="evenodd" clip-rule="evenodd" d="M19.021 15.2106C19.102 15.6212 19.1911 16.0725 18.7553 16.6169C18.9065 16.5525 19.0529 16.4981 19.1885 16.4478C19.3842 16.3752 19.5574 16.311 19.69 16.2367C20.1243 15.9952 20.0374 16.1989 19.9826 16.3273C19.9753 16.3445 19.9685 16.3604 19.9637 16.3737C19.5668 17.4693 18.5132 18.1416 17.6238 18.179C17.3625 18.1915 17.2359 18.1883 17.1973 18.1409C17.0645 18.236 16.9099 18.3268 16.7297 18.4112C17.1421 18.3458 17.5628 18.3252 17.9522 18.3658C18.1027 18.3782 18.3217 18.4903 18.0206 18.5525C17.8531 18.5888 17.6565 18.7298 17.4132 18.9044C16.8219 19.3286 15.9548 19.9507 14.5588 19.7478C14.4315 19.732 14.358 19.714 14.3311 19.6796C14.0711 19.7729 13.8137 19.8312 13.5736 19.8474C13.0536 19.8847 13.0536 19.8349 13.2452 19.5237C13.8978 18.4457 14.904 18.0246 15.6097 17.7292L15.6098 17.7292C15.8659 17.622 16.0824 17.5314 16.2281 17.432C16.5588 17.2019 16.6061 17.3366 16.591 17.474C16.8617 16.9591 17.3825 16.4987 17.9894 16.1637C18.0249 15.6262 18.2193 14.9773 18.7048 14.5434C18.8416 14.4189 18.9921 14.3318 18.9648 14.6804C18.9503 14.8521 18.9848 15.0273 19.021 15.2106ZM16.4221 17.9365C16.305 18.1655 16.1496 18.3835 15.9676 18.5848C16.1169 18.5401 16.2713 18.5006 16.4284 18.4672C16.3978 18.4276 16.3923 18.3431 16.3923 18.2039C16.3938 18.1141 16.404 18.0248 16.4221 17.9365ZM18.0356 16.8332C18.019 16.9056 17.9999 16.9817 17.976 17.0602C18.0119 17.0325 18.0481 17.0059 18.0845 16.9804C18.0765 16.9632 18.0689 16.9437 18.0617 16.9215C18.0523 16.8944 18.0436 16.8649 18.0356 16.8332Z" stroke="black" stroke-width="0.1"/>
    <path d="M3.07854 11.1693C3.24603 11.2687 3.61507 11.5832 3.84942 12.1035C4.04935 11.5839 4.41213 11.2751 4.57001 11.1817C4.82999 11.0199 4.99419 10.9576 4.87104 11.2191C4.81981 11.3434 4.80188 11.538 4.78068 11.7681C4.74488 12.1566 4.69976 12.6463 4.4693 13.0698C5.06283 13.7816 5.05314 14.7367 4.74789 15.3154C4.72775 15.3508 4.70932 15.3825 4.69228 15.4106C4.75935 15.5605 4.81188 15.727 4.84368 15.913C4.89841 16.2118 4.89841 16.2491 4.48792 16.1122C3.77639 15.8632 3.10591 15.0539 3.10591 14.0578C3.10591 14.0444 3.10466 14.0275 3.10331 14.0093C3.09467 13.8925 3.08183 13.7189 3.36589 14.0205C3.44872 14.1079 3.56686 14.1983 3.70106 14.3009C3.80731 14.3822 3.92364 14.4711 4.04048 14.5725C4.00208 14.2374 4.0293 13.8984 4.0568 13.6079C4.0339 13.6369 4.01314 13.6628 3.99411 13.6841C3.97595 13.7692 3.95367 13.8565 3.9269 13.9458C3.84499 14.2253 3.7784 14.1353 3.64686 13.9575C3.60262 13.8977 3.55103 13.828 3.48904 13.759C2.96207 13.2122 2.89109 12.4494 2.83718 11.8701C2.8113 11.5919 2.78935 11.3561 2.72278 11.2066C2.58594 10.8954 2.77751 10.9701 3.07854 11.1693Z" stroke="black" stroke-width="0.1"/>
    <path fill-rule="evenodd" clip-rule="evenodd" d="M5.24471 16.6169C4.80896 16.0726 4.89802 15.6212 4.97902 15.2106C5.01519 15.0273 5.04976 14.8521 5.03525 14.6804C5.00788 14.3318 5.1584 14.4189 5.29523 14.5434C5.78075 14.9773 5.97512 15.6262 6.01059 16.1637C6.61754 16.4987 7.13836 16.959 7.40904 17.474C7.39398 17.3366 7.44126 17.2019 7.77189 17.432C7.91763 17.5314 8.13418 17.622 8.3903 17.7292C9.09607 18.0246 10.1023 18.4457 10.7548 19.5237C10.9464 19.8349 10.9464 19.8847 10.4264 19.8474C10.1863 19.8312 9.92891 19.7729 9.66889 19.6796C9.64201 19.714 9.56854 19.732 9.44125 19.7478C8.04524 19.9507 7.17811 19.3286 6.5868 18.9044C6.34351 18.7298 6.14691 18.5888 5.97938 18.5525C5.67835 18.4903 5.89729 18.3782 6.0478 18.3658C6.43724 18.3252 6.85796 18.3458 7.27036 18.4113C7.0901 18.3268 6.93556 18.236 6.80271 18.1409C6.76409 18.1883 6.63756 18.1915 6.3762 18.179C5.48679 18.1416 4.43318 17.4693 4.03637 16.3737C4.03151 16.3604 4.02475 16.3445 4.0174 16.3273C3.96262 16.1989 3.87569 15.9952 4.31003 16.2367C4.44265 16.311 4.61582 16.3752 4.81149 16.4478L4.81156 16.4478C4.94714 16.4982 5.09353 16.5525 5.24471 16.6169ZM8.03248 18.5848C7.85044 18.3835 7.69499 18.1655 7.57793 17.9365C7.59604 18.0248 7.6062 18.1141 7.6077 18.2039C7.6077 18.3431 7.60222 18.4276 7.57168 18.4672C7.72874 18.5006 7.8831 18.5401 8.03248 18.5848ZM6.02405 17.0602C6.00014 16.9817 5.98099 16.9056 5.96442 16.8331C5.95646 16.8649 5.94774 16.8944 5.93834 16.9215C5.93117 16.9437 5.92355 16.9632 5.91553 16.9804C5.95195 17.0059 5.98815 17.0325 6.02405 17.0602Z" stroke="black" stroke-width="0.1"/>
    <path d="M14.3125 5.51672C14.0525 5.34241 13.0947 5.44201 12.9168 5.32996C13.2589 5.59142 14.0252 5.40466 14.3125 5.51672Z" fill="#006233"/>
    <path d="M16.6251 5.96493C16.4199 5.62876 15.2021 5.40465 15.0242 5.10583C15.3389 5.67857 16.283 5.60386 16.6251 5.96493Z" fill="#006233"/>
    <path d="M16.4472 6.35094C15.9956 5.95251 14.942 6.11437 14.6273 5.87781C15.3662 6.4879 15.7767 6.01477 16.4472 6.35094Z" fill="#006233"/>
    <path d="M13.8063 4.58301C14.0936 4.71996 14.4494 4.85692 14.6272 5.18064C14.422 4.93162 14.0526 4.83202 13.7515 4.62036C13.7652 4.62036 13.7926 4.59546 13.8063 4.58301Z" fill="#006233"/>
    <path d="M18.2945 7.14779C18.1166 6.77427 17.4872 6.3634 17.4324 6.22644C17.6103 6.71202 18.1303 6.82407 18.2945 7.14779Z" fill="#006233"/>
    <path d="M18.4587 7.80769C17.9113 7.02331 17.0493 7.11046 16.7072 6.81165C16.9672 7.09801 17.9524 7.28477 18.4587 7.80769Z" fill="#006233"/>
    <path d="M19.7311 9.01531C19.7721 8.18112 19.088 7.86985 19.0606 7.39673C19.0469 7.95701 19.7585 8.7165 19.7311 9.01531Z" fill="#006233"/>
    <path d="M19.3891 9.46357C19.2523 8.74143 18.3219 8.69163 18.1577 8.26831C18.1577 8.66673 19.2523 9.0776 19.3891 9.46357Z" fill="#006233"/>
    <path d="M20.1554 9.05273C20.648 9.60056 20.3059 10.4348 20.5112 11.0448C20.2649 10.5966 20.388 9.47606 20.1554 9.05273Z" fill="#006233"/>
    <path d="M19.3479 11.3934C20.0868 12.1156 19.7858 12.9249 20.0868 13.2735C19.7174 12.7879 19.7721 11.8417 19.3479 11.3934Z" fill="#006233"/>
    <path d="M20.8805 11.493C20.2511 12.128 20.6342 13.0867 20.3058 13.5349C20.6752 13.149 20.6205 11.9662 20.8805 11.493Z" fill="#006233"/>
    <path d="M20.087 11.4931C20.0049 10.7585 19.2523 10.3725 19.1839 9.97412C19.1018 10.3725 19.9091 10.9951 20.087 11.4931Z" fill="#006233"/>
    <path d="M19.7037 13.2485C19.8269 13.759 19.3753 14.8547 19.5122 15.1908C19.2111 14.6057 19.7722 13.4975 19.7037 13.2485Z" fill="#006233"/>
    <path d="M20.6753 14.4189C20.3743 15.3278 19.7722 15.2656 19.5806 15.8134C19.7175 15.2905 20.5111 14.8174 20.6753 14.4189Z" fill="#006233"/>
    <path d="M18.7187 14.8423C18.3218 15.4524 18.6502 16.1496 18.3218 16.5854C18.7871 16.1496 18.5408 15.3403 18.7187 14.8423Z" fill="#006233"/>
    <path d="M19.6763 16.5106C19.1974 17.3199 18.2122 17.2452 17.8154 17.8304C18.2122 17.0958 19.43 16.9713 19.6763 16.5106Z" fill="#006233"/>
    <path d="M17.9387 16.411C17.0903 16.9464 17.3503 17.5067 16.7072 18.1043C17.5145 17.5067 17.4461 16.8468 17.9387 16.411Z" fill="#006233"/>
    <path d="M17.5418 18.5775C16.7208 18.5526 15.5441 19.5237 14.8325 19.449C15.5441 19.586 16.8576 18.7145 17.5418 18.5775Z" fill="#006233"/>
    <path d="M16.2145 17.7059C16.1598 18.4654 14.0252 18.951 13.7925 19.4615C14.0525 18.7891 15.9271 18.2911 16.2145 17.7059Z" fill="#006233"/>
    <path d="M11.3844 3.69895C11.1107 3.48729 10.7823 3.31298 10.6865 3.10132C10.7549 3.37523 11.0286 3.57444 11.3023 3.7612C11.3296 3.74875 11.357 3.7114 11.3844 3.69895Z" fill="#006233"/>
    <path d="M10.9192 3.92308C10.495 3.73632 10.0024 3.74877 9.78351 3.4873C9.92034 3.74877 10.3856 3.84837 10.7824 3.98533C10.8234 3.96043 10.8782 3.93553 10.9192 3.92308Z" fill="#006233"/>
    <path d="M9.68762 5.51672C9.9476 5.34241 10.9054 5.44201 11.0833 5.32996C10.7412 5.59142 9.97497 5.40466 9.68762 5.51672Z" fill="#006233"/>
    <path d="M7.37524 5.96493C7.58049 5.62876 8.7983 5.40465 8.97619 5.10583C8.66147 5.67857 7.71733 5.60386 7.37524 5.96493Z" fill="#006233"/>
    <path d="M7.55304 6.35094C8.00459 5.95251 9.0582 6.11437 9.37291 5.87781C8.63402 6.4879 8.22352 6.01477 7.55304 6.35094Z" fill="#006233"/>
    <path d="M9.37286 5.18063C9.63285 4.6826 10.3717 4.62035 10.5633 4.32153C10.276 4.76976 9.64653 4.84446 9.37286 5.18063Z" fill="#006233"/>
    <path d="M11.4802 4.74486C12.2328 4.42115 12.9717 4.69506 13.3275 4.54565C12.8896 4.75731 11.8497 4.65771 11.4802 4.74486Z" fill="#006233"/>
    <path d="M5.70575 7.14779C5.88363 6.77427 6.51306 6.3634 6.5678 6.22644C6.38991 6.71202 5.86995 6.82407 5.70575 7.14779Z" fill="#006233"/>
    <path d="M5.54163 7.80769C6.08896 7.02331 6.951 7.11046 7.29308 6.81165C7.0331 7.09801 6.04791 7.28477 5.54163 7.80769Z" fill="#006233"/>
    <path d="M4.26917 9.01531C4.22812 8.18112 4.91228 7.86985 4.93965 7.39673C4.95333 7.95701 4.2418 8.7165 4.26917 9.01531Z" fill="#006233"/>
    <path d="M4.61115 9.46357C4.74798 8.74143 5.67844 8.69163 5.84264 8.26831C5.84264 8.66673 4.74798 9.0776 4.61115 9.46357Z" fill="#006233"/>
    <path d="M3.8449 9.05273C3.3523 9.60056 3.69438 10.4348 3.48914 11.0448C3.73543 10.5966 3.61229 9.47606 3.8449 9.05273Z" fill="#006233"/>
    <path d="M4.65229 11.3934C3.91339 12.1156 4.21442 12.9249 3.91339 13.2735C4.28284 12.7879 4.22811 11.8417 4.65229 11.3934Z" fill="#006233"/>
    <path d="M3.11969 11.493C3.74912 12.128 3.36599 13.0867 3.69439 13.5349C3.32494 13.149 3.37967 11.9662 3.11969 11.493Z" fill="#006233"/>
    <path d="M3.91339 11.4931C3.99549 10.7585 4.74807 10.3725 4.81649 9.97412C4.89859 10.3725 4.09127 10.9951 3.91339 11.4931Z" fill="#006233"/>
    <path d="M4.29649 13.2485C4.17334 13.759 4.62488 14.8547 4.48805 15.1908C4.78908 14.6057 4.22807 13.4975 4.29649 13.2485Z" fill="#006233"/>
    <path d="M3.32495 14.4189C3.62598 15.3278 4.22805 15.2656 4.41961 15.8134C4.28278 15.2905 3.48915 14.8174 3.32495 14.4189Z" fill="#006233"/>
    <path d="M5.28174 14.8423C5.67856 15.4524 5.35015 16.1496 5.67856 16.5854C5.21332 16.1496 5.45962 15.3403 5.28174 14.8423Z" fill="#006233"/>
    <path d="M4.32385 16.5106C4.80277 17.3199 5.78796 17.2452 6.18477 17.8304C5.78796 17.0958 4.57015 16.9713 4.32385 16.5106Z" fill="#006233"/>
    <path d="M6.06158 16.411C6.90995 16.9464 6.64997 17.5067 7.29308 18.1043C6.48577 17.5067 6.55418 16.8468 6.06158 16.411Z" fill="#006233"/>
    <path d="M6.45844 18.5775C7.27943 18.5526 8.45619 19.5237 9.16772 19.449C8.45619 19.586 7.1426 18.7145 6.45844 18.5775Z" fill="#006233"/>
    <path d="M7.78571 17.7059C7.84044 18.4654 9.97502 18.951 10.2076 19.4615C9.94765 18.7891 8.07305 18.2911 7.78571 17.7059Z" fill="#006233"/>
    <path d="M10.8917 4.76973C11.0559 4.09739 11.8769 3.97288 11.9864 3.57446C11.9453 3.99779 10.9738 4.47091 10.8917 4.76973Z" fill="#006233"/>
    <path d="M13.3137 3.10132C13.1905 3.61179 12.3011 3.89816 12.178 4.28413C12.219 3.7612 13.1358 3.46239 13.3137 3.10132Z" fill="#006233"/>
    <path d="M12.6158 4.30904C13.04 3.68651 13.9157 3.84837 14.2168 3.4873C13.9978 3.91063 12.9169 3.92308 12.6158 4.30904Z" fill="#006233"/>
    <path fill-rule="evenodd" clip-rule="evenodd" d="M11.9729 6.20138C8.44357 6.20138 5.59109 8.80371 5.59109 12.0038C5.59109 15.2038 8.44357 17.8061 11.9729 17.8061C15.5023 17.8061 18.3548 15.2038 18.3548 12.0038C18.3548 8.80371 15.5023 6.20138 11.9729 6.20138ZM5.48651 12.0038C5.48651 8.73688 8.39532 6.0968 11.9729 6.0968C15.5506 6.0968 18.4594 8.73688 18.4594 12.0038C18.4594 15.2706 15.5506 17.9107 11.9729 17.9107C8.39532 17.9107 5.48651 15.2706 5.48651 12.0038Z" fill="#F7C608"/>
    <path d="M10.7106 17.8616L10.6874 17.9332C10.672 17.981 10.6211 18.0063 10.5647 18.0042C10.4334 17.9691 10.2589 17.9355 10.1013 17.8934L10.2477 17.4396C10.4184 17.4852 10.5929 17.5189 10.7149 17.5385C10.7675 17.5525 10.7953 17.5989 10.7799 17.6466L10.7606 17.7063L10.7106 17.8616ZM9.6539 17.4237L9.67702 17.352C9.69243 17.3043 9.74337 17.279 9.79588 17.293C9.92333 17.34 10.077 17.394 10.2477 17.4396L10.1013 17.8934C9.94377 17.8513 9.78621 17.8092 9.64564 17.7587C9.59697 17.7327 9.58456 17.6386 9.59996 17.5908" fill="#F7C608"/>
    <path d="M10.6209 17.822L10.6043 17.8734C10.5932 17.908 10.5523 17.9243 10.5059 17.921C10.3967 17.8918 10.2521 17.8623 10.121 17.8273L10.2258 17.5025C10.3678 17.5404 10.5124 17.57 10.6134 17.5879C10.6571 17.5995 10.6818 17.6334 10.6706 17.668L10.6567 17.711L10.6209 17.822ZM9.73676 17.4743L9.75333 17.423C9.7645 17.3884 9.80534 17.372 9.84903 17.3837C9.95553 17.4212 10.0839 17.4646 10.2258 17.5025L10.121 17.8273C9.99 17.7923 9.85896 17.7573 9.74154 17.7168C9.70055 17.6968 9.68706 17.6284 9.69823 17.5937" fill="#006233"/>
    <path d="M8.9505 17.2941L8.90615 17.357C8.87657 17.3988 8.81985 17.4101 8.76641 17.3936C8.65128 17.3263 8.49424 17.2493 8.35609 17.1685L8.63701 16.7707C8.78667 16.8581 8.94373 16.9352 9.05473 16.9853C9.10078 17.0122 9.11314 17.0638 9.08357 17.1057L9.04661 17.158L8.9505 17.2941ZM8.07217 16.6032L8.11653 16.5403C8.1461 16.4985 8.20281 16.4872 8.24886 16.5142C8.35659 16.5919 8.48735 16.6832 8.63701 16.7707L8.35608 17.1685C8.21793 17.0878 8.07978 17.007 7.96053 16.9225C7.92187 16.8851 7.93909 16.7916 7.96866 16.7497" fill="#F7C608"/>
    <path d="M8.87674 17.2332L8.84495 17.2782C8.82351 17.3086 8.77926 17.3137 8.73579 17.2987C8.64004 17.2427 8.51039 17.1773 8.39549 17.1101L8.59657 16.8253C8.72104 16.8981 8.8507 16.9635 8.94204 17.0066C8.98034 17.029 8.99355 17.0677 8.97211 17.0981L8.94549 17.1358L8.87674 17.2332ZM8.13602 16.6729L8.16781 16.6279C8.18925 16.5976 8.2335 16.5924 8.2718 16.6147C8.36238 16.6781 8.47209 16.7525 8.59657 16.8253L8.39548 17.1101C8.28058 17.0429 8.16568 16.9758 8.06554 16.9069C8.03241 16.8771 8.04065 16.808 8.06209 16.7776" fill="#006233"/>
    <path d="M7.43777 16.2984L7.37576 16.3473C7.33442 16.3799 7.27653 16.3761 7.23034 16.3467C7.14071 16.2526 7.01386 16.1384 6.9063 16.0255L7.29902 15.7158C7.41553 15.8381 7.54239 15.9522 7.63339 16.0287C7.66924 16.0664 7.66513 16.1191 7.62379 16.1517L7.57212 16.1924L7.43777 16.2984ZM6.80889 15.4103L6.8709 15.3614C6.91224 15.3288 6.97012 15.3325 7.00598 15.3702C7.08527 15.4724 7.18249 15.5935 7.29902 15.7158L6.9063 16.0255C6.79874 15.9126 6.69118 15.7997 6.60292 15.6881C6.5774 15.6423 6.62286 15.557 6.6642 15.5244" fill="#F7C608"/>
    <path d="M7.38572 16.2209L7.34128 16.256C7.31131 16.2796 7.26724 16.2733 7.23019 16.2477C7.15564 16.1694 7.0515 16.0734 6.96205 15.9795L7.24315 15.7578C7.34005 15.8595 7.4442 15.9555 7.51852 16.0202C7.54834 16.0515 7.549 16.0921 7.51903 16.1158L7.48183 16.1451L7.38572 16.2209ZM6.84841 15.4935L6.89285 15.4585C6.92282 15.4348 6.96688 15.4412 6.99671 15.4725C7.06402 15.5565 7.14623 15.6561 7.24315 15.7578L6.96204 15.9795C6.87258 15.8856 6.78313 15.7917 6.70836 15.6999C6.68578 15.6629 6.71509 15.5987 6.74506 15.575" fill="#006233"/>
    <path d="M6.29397 14.9555L6.21933 14.9865C6.16957 15.0072 6.11519 14.9887 6.08 14.9486C6.02312 14.8354 5.93674 14.6933 5.86849 14.5574L6.3412 14.3609C6.41514 14.5081 6.50152 14.6501 6.56514 14.7469C6.58789 14.7922 6.56764 14.8417 6.51788 14.8624L6.45568 14.8882L6.29397 14.9555ZM5.96548 13.9421L6.04012 13.9111C6.08988 13.8904 6.14426 13.9088 6.16701 13.9541C6.21145 14.0726 6.26726 14.2136 6.3412 14.3609L5.86849 14.5574C5.80024 14.4215 5.73199 14.2856 5.68186 14.1559C5.67155 14.1054 5.74157 14.0352 5.79133 14.0145" fill="#F7C608"/>
    <path d="M6.26813 14.8678L6.21464 14.89C6.17857 14.905 6.13825 14.8876 6.11062 14.8536C6.06332 14.7594 5.99312 14.6406 5.93635 14.5275L6.27471 14.3868C6.3362 14.5093 6.4064 14.6281 6.45768 14.7093C6.4766 14.7469 6.46467 14.786 6.4286 14.801L6.38382 14.8197L6.26813 14.8678ZM5.97776 14.0321L6.03125 14.0099C6.06732 13.9949 6.10764 14.0123 6.12656 14.0499C6.16516 14.1478 6.21321 14.2644 6.27471 14.3868L5.93635 14.5275C5.87958 14.4145 5.82282 14.3015 5.77949 14.1943C5.76928 14.153 5.81729 14.0988 5.85336 14.0838" fill="#006233"/>
    <path d="M5.61249 13.3738L5.53127 13.3845C5.47712 13.3916 5.43065 13.3599 5.40931 13.3124C5.38979 13.1891 5.35088 13.0307 5.32746 12.8828L5.84188 12.8154C5.86725 12.9756 5.90616 13.134 5.93727 13.2432C5.94507 13.2925 5.91032 13.3348 5.85617 13.3419L5.78848 13.3507L5.61249 13.3738ZM5.611 12.3173L5.69223 12.3066C5.74638 12.2995 5.79284 12.3312 5.80065 12.3805C5.80663 12.5055 5.81651 12.6551 5.84188 12.8154L5.32746 12.8828C5.30404 12.7349 5.28062 12.587 5.27269 12.4497C5.27842 12.3986 5.36733 12.3492 5.42148 12.3421" fill="#F7C608"/>
    <path d="M5.61461 13.283L5.5564 13.2907C5.51714 13.2958 5.48384 13.2688 5.46787 13.229C5.45164 13.1265 5.42106 12.9945 5.40159 12.8715L5.7698 12.8232C5.7909 12.9565 5.82148 13.0885 5.84557 13.1795C5.85206 13.2205 5.8285 13.255 5.78924 13.2601L5.74051 13.2665L5.61461 13.283ZM5.59468 12.4068L5.65289 12.3991C5.69215 12.394 5.72545 12.421 5.73194 12.462C5.7387 12.5658 5.7487 12.69 5.7698 12.8232L5.40158 12.8715C5.38211 12.7485 5.36263 12.6255 5.35425 12.5115C5.35723 12.4693 5.42005 12.4297 5.45931 12.4245" fill="#006233"/>
    <path d="M5.44858 11.681L5.36735 11.6704C5.31319 11.6633 5.2784 11.621 5.27263 11.57C5.29206 11.4467 5.30377 11.2847 5.32707 11.1368L5.84154 11.204C5.81629 11.3642 5.80458 11.5262 5.80064 11.6389C5.79287 11.6882 5.74643 11.7198 5.69227 11.7128L5.62458 11.704L5.44858 11.681ZM5.77419 10.6669L5.85542 10.6775C5.90958 10.6845 5.94437 10.7268 5.9366 10.7761C5.90364 10.8976 5.86679 11.0437 5.84154 11.204L5.32708 11.1368C5.35038 10.9889 5.37369 10.841 5.4086 10.7072C5.4299 10.6597 5.5305 10.6351 5.58465 10.6421" fill="#F7C608"/>
    <path d="M5.47877 11.5945L5.42056 11.5869C5.38129 11.5818 5.35771 11.5473 5.35469 11.5051C5.37085 11.4026 5.38237 11.2681 5.40176 11.145L5.77001 11.1931C5.74901 11.3263 5.73749 11.4608 5.73242 11.5543C5.72596 11.5953 5.69268 11.6224 5.65342 11.6173L5.60468 11.6109L5.47877 11.5945ZM5.7309 10.7486L5.78912 10.7562C5.82838 10.7613 5.85197 10.7958 5.8455 10.8368C5.81987 10.938 5.79101 11.0598 5.77001 11.1931L5.40176 11.145C5.42114 11.022 5.44053 10.899 5.46777 10.7875C5.48371 10.7477 5.55625 10.7258 5.59551 10.7309" fill="#006233"/>
    <path d="M5.81516 10.0159L5.7405 9.98495C5.69072 9.96429 5.67043 9.9148 5.68071 9.86433C5.7375 9.75104 5.79888 9.59862 5.86702 9.46268L6.33987 9.65894C6.26604 9.8062 6.20466 9.95863 6.16599 10.0657C6.14328 10.1111 6.08891 10.1296 6.03914 10.1089L5.97692 10.0831L5.81516 10.0159ZM6.44151 9.12634L6.51617 9.15733C6.56594 9.17799 6.58624 9.22746 6.56352 9.27278C6.49429 9.38089 6.4137 9.51167 6.33987 9.65894L5.86703 9.46267C5.93517 9.32674 6.00332 9.1908 6.07824 9.07135C6.1134 9.0312 6.21753 9.03337 6.2673 9.05403" fill="#F7C608"/>
    <path d="M5.87099 9.94068L5.81748 9.91848C5.7814 9.9035 5.76944 9.86438 5.77962 9.82308C5.82685 9.72887 5.87955 9.60276 5.93622 9.48971L6.27468 9.63018C6.21328 9.75266 6.16059 9.87876 6.12679 9.96717C6.1079 10.0049 6.0676 10.0223 6.03151 10.0073L5.98672 9.98871L5.87099 9.94068ZM6.37475 9.19367L6.42826 9.21588C6.46435 9.23086 6.47631 9.26996 6.45741 9.30766C6.40147 9.39826 6.33608 9.5077 6.27468 9.63018L5.93623 9.4897C5.99291 9.37664 6.04958 9.26358 6.11025 9.16356C6.13785 9.12948 6.21424 9.12704 6.25032 9.14202" fill="#006233"/>
    <path d="M6.68218 8.5105L6.62013 8.46163C6.57877 8.42905 6.57462 8.37637 6.6001 8.33057C6.68966 8.23643 6.79574 8.1059 6.90321 7.99294L7.29617 8.30244C7.17975 8.42482 7.07366 8.55535 7.0034 8.64822C6.96758 8.68588 6.90968 8.68969 6.86832 8.65711L6.81662 8.61638L6.68218 8.5105ZM7.55856 7.81746L7.6206 7.86633C7.66197 7.89891 7.66613 7.95158 7.6303 7.98924C7.53041 8.07523 7.4126 8.18006 7.29617 8.30244L6.90321 7.99293C7.01068 7.87996 7.11815 7.76699 7.22701 7.67158C7.27317 7.64207 7.37242 7.67085 7.41379 7.70343" fill="#F7C608"/>
    <path d="M6.75897 8.45257L6.71451 8.41755C6.68452 8.39393 6.68515 8.35333 6.70771 8.31631C6.78219 8.23802 6.87179 8.13053 6.96116 8.03658L7.24244 8.25812C7.14562 8.35989 7.05602 8.46738 6.99622 8.54355C6.96643 8.57486 6.92236 8.58126 6.89238 8.55764L6.85515 8.52831L6.75897 8.45257ZM7.47359 7.86493L7.51805 7.89995C7.54804 7.92357 7.54742 7.96416 7.51762 7.99549C7.4359 8.06808 7.33928 8.15633 7.24244 8.25812L6.96117 8.03657C7.05055 7.94262 7.13994 7.84866 7.22911 7.76824C7.26615 7.74262 7.34019 7.75986 7.37018 7.78348" fill="#006233"/>
    <path d="M7.98 7.28906L7.9356 7.22626C7.906 7.1844 7.91832 7.13279 7.95695 7.09537C8.07202 7.028 8.21421 6.92995 8.3523 6.8491L8.63354 7.24679C8.48395 7.33437 8.34175 7.43242 8.24559 7.50352C8.19956 7.53047 8.14283 7.51929 8.11322 7.47743L8.07622 7.4251L7.98 7.28906ZM9.03544 6.84869L9.07984 6.91149C9.10945 6.95335 9.09713 7.00495 9.0511 7.0319C8.92863 7.08881 8.78314 7.1592 8.63354 7.24679L8.35231 6.8491C8.4904 6.76825 8.62848 6.6874 8.76247 6.62375C8.8159 6.60726 8.90223 6.66031 8.93183 6.70218" fill="#F7C608"/>
    <path d="M8.07156 7.25323L8.03974 7.20822C8.01828 7.17787 8.03146 7.13908 8.06455 7.10934C8.16026 7.05331 8.2795 6.97313 8.39435 6.90589L8.59566 7.19055C8.47124 7.2634 8.352 7.34357 8.27104 7.40133C8.23277 7.42374 8.1885 7.41858 8.16704 7.38823L8.1404 7.35055L8.07156 7.25323ZM8.93916 6.87252L8.97099 6.91752C8.99245 6.94787 8.97928 6.98666 8.94099 7.00908C8.84011 7.05779 8.72008 7.1177 8.59566 7.19055L8.39436 6.90589C8.50921 6.83864 8.62406 6.7714 8.73451 6.71709C8.77798 6.70199 8.84369 6.73751 8.86516 6.76786" fill="#006233"/>
    <path d="M9.60333 6.4502L9.58017 6.37857C9.56472 6.33082 9.59252 6.28446 9.64117 6.25846C9.77244 6.2233 9.93922 6.16567 10.0967 6.12348L10.2435 6.57714C10.0728 6.62284 9.90605 6.68048 9.79177 6.72406C9.73927 6.73812 9.68829 6.71285 9.67285 6.6651L9.65354 6.6054L9.60333 6.4502ZM10.7523 6.29817L10.7755 6.3698C10.791 6.41755 10.7632 6.46391 10.7107 6.47798C10.5755 6.50119 10.4141 6.53144 10.2435 6.57714L10.0968 6.12348C10.2543 6.08129 10.4118 6.03911 10.5601 6.01238C10.6164 6.01025 10.6828 6.08328 10.6983 6.13103" fill="#F7C608"/>
    <path d="M9.70236 6.43925L9.68576 6.38792C9.67456 6.3533 9.69921 6.31945 9.74018 6.2994C9.84935 6.27016 9.98859 6.2238 10.1196 6.18871L10.2246 6.51343C10.0827 6.55144 9.94348 6.59781 9.84792 6.63248C9.80425 6.64417 9.76338 6.62787 9.75218 6.59325L9.73828 6.55028L9.70236 6.43925ZM10.6527 6.29632L10.6693 6.34766C10.6805 6.38228 10.6558 6.41612 10.6122 6.42782C10.5003 6.4487 10.3666 6.47542 10.2246 6.51343L10.1196 6.18871C10.2506 6.15363 10.3816 6.11854 10.5044 6.09474C10.5508 6.0914 10.6029 6.14232 10.6141 6.17694" fill="#006233"/>
    <path d="M11.4207 6.06218L11.4207 5.98751C11.4206 5.93773 11.4617 5.90037 11.5164 5.88789C11.6532 5.88781 11.8311 5.87525 11.9953 5.87514L11.9957 6.34803C11.8178 6.34815 11.6399 6.3607 11.5168 6.37323C11.462 6.37326 11.4209 6.33596 11.4209 6.28618L11.4209 6.22395L11.4207 6.06218ZM12.5703 6.21078L12.5704 6.28545C12.5704 6.33523 12.5294 6.37258 12.4746 6.37262C12.3378 6.36026 12.1736 6.34792 11.9957 6.34803L11.9953 5.87514C12.1595 5.87504 12.3237 5.87494 12.4743 5.88728C12.529 5.89969 12.5701 5.98678 12.5702 6.03656" fill="#F7C608"/>
    <path d="M11.5191 6.07705L11.519 6.02354C11.519 5.98745 11.5532 5.96129 11.5987 5.95255C11.7125 5.95248 11.8604 5.94368 11.997 5.94359L11.9973 6.28208C11.8493 6.28217 11.7014 6.29097 11.5989 6.29975C11.5534 6.29978 11.5192 6.27367 11.5192 6.23758L11.5192 6.19278L11.5191 6.07705ZM12.4752 6.18346L12.4752 6.23697C12.4753 6.27306 12.4411 6.29922 12.3956 6.29924C12.2818 6.29061 12.1452 6.28198 11.9973 6.28208L11.997 5.94359C12.1336 5.9435 12.2702 5.94342 12.3953 5.95205C12.4409 5.96073 12.4751 6.02293 12.4751 6.05902" fill="#006233"/>
    <path d="M13.1619 6.14566L13.1844 6.07384C13.1993 6.02595 13.25 6.00025 13.3064 6.0019C13.4381 6.03593 13.6129 6.06821 13.7709 6.10905L13.6288 6.56394C13.4577 6.5197 13.2828 6.48742 13.1606 6.46876C13.108 6.45515 13.0797 6.40902 13.0947 6.36114L13.1133 6.30129L13.1619 6.14566ZM14.2228 6.57521L14.2004 6.64704C14.1854 6.69492 14.1347 6.72062 14.0821 6.70701C13.9542 6.661 13.7999 6.60819 13.6288 6.56394L13.7709 6.10905C13.9288 6.14989 14.0868 6.19074 14.2279 6.24015C14.2768 6.26573 14.2901 6.35974 14.2751 6.40762" fill="#F7C608"/>
    <path d="M13.252 6.18453L13.268 6.13305C13.2789 6.09834 13.3196 6.08169 13.366 6.08463C13.4755 6.11294 13.6204 6.14136 13.7518 6.17533L13.6501 6.50094C13.5078 6.46414 13.3628 6.43572 13.2617 6.41863C13.2179 6.4073 13.1929 6.37367 13.2037 6.33896L13.2172 6.29586L13.252 6.18453ZM14.1394 6.52526L14.1234 6.57674C14.1125 6.61146 14.0718 6.6281 14.028 6.61678C13.9212 6.58009 13.7924 6.53774 13.6501 6.50094L13.7518 6.17533C13.8832 6.2093 14.0145 6.24327 14.1323 6.28279C14.1735 6.30249 14.1877 6.37084 14.1768 6.40556" fill="#006233"/>
    <path d="M14.9272 6.69937L14.971 6.6362C15.0001 6.59409 15.0568 6.58242 15.1104 6.59845C15.2261 6.66485 15.3839 6.74062 15.5228 6.8203L15.2457 7.22036C15.0952 7.13405 14.9374 7.05826 14.8259 7.00904C14.7796 6.98249 14.7668 6.93098 14.7959 6.88887L14.8324 6.83623L14.9272 6.69937ZM15.8121 7.3834L15.7683 7.44657C15.7392 7.48868 15.6826 7.50035 15.6363 7.47379C15.5278 7.39687 15.3962 7.30667 15.2457 7.22036L15.5228 6.8203C15.6617 6.89997 15.8006 6.97964 15.9207 7.0632C15.9597 7.10029 15.9434 7.1939 15.9142 7.23601" fill="#F7C608"/>
    <path d="M15.0018 6.75969L15.0331 6.71442C15.0543 6.68389 15.0985 6.67835 15.1421 6.69307C15.2384 6.74829 15.3687 6.8127 15.4842 6.87896L15.2858 7.16533C15.1607 7.09354 15.0304 7.02913 14.9386 6.9868C14.9001 6.96472 14.8865 6.92604 14.9077 6.89551L14.934 6.85761L15.0018 6.75969ZM15.7478 7.31407L15.7165 7.35935C15.6953 7.38988 15.6511 7.39542 15.6126 7.37333C15.5214 7.31074 15.411 7.23711 15.2858 7.16533L15.4842 6.87897C15.5997 6.94523 15.7153 7.0115 15.8161 7.0796C15.8495 7.10906 15.8419 7.17827 15.8208 7.2088" fill="#006233"/>
    <path d="M16.4494 7.6827L16.5109 7.6333C16.552 7.60037 16.6099 7.60369 16.6564 7.63281C16.7469 7.72618 16.8748 7.83933 16.9834 7.95138L16.5937 8.26422C16.476 8.14284 16.3481 8.02968 16.2564 7.95388C16.2201 7.91653 16.2238 7.86382 16.2648 7.83089L16.3161 7.78972L16.4494 7.6827ZM17.0867 8.56583L17.0252 8.61522C16.9841 8.64815 16.9262 8.64484 16.89 8.60749C16.8097 8.50589 16.7114 8.38561 16.5937 8.26422L16.9834 7.95138C17.0921 8.06343 17.2007 8.17548 17.29 8.28643C17.316 8.33201 17.2713 8.41764 17.2303 8.45057" fill="#F7C608"/>
    <path d="M16.5021 7.75974L16.5462 7.72434C16.576 7.70046 16.6201 7.70648 16.6574 7.73178C16.7327 7.80943 16.8377 7.90463 16.9281 7.99782L16.6491 8.22175C16.5512 8.1208 16.4462 8.0256 16.3712 7.96147C16.3411 7.93041 16.3401 7.88982 16.3698 7.86594L16.4067 7.83631L16.5021 7.75974ZM17.0463 8.48288L17.0022 8.51828C16.9725 8.54216 16.9283 8.53615 16.8982 8.50508C16.8301 8.42166 16.747 8.32271 16.6491 8.22175L16.9281 7.99783C17.0184 8.09102 17.1088 8.18421 17.1844 8.2754C17.2073 8.31223 17.1786 8.37668 17.1489 8.40056" fill="#006233"/>
    <path d="M17.6055 9.01672L17.6799 8.9851C17.7295 8.96402 17.784 8.98205 17.8196 9.0219C17.8775 9.13469 17.9653 9.27604 18.0348 9.4114L17.564 9.61167C17.4886 9.46505 17.4009 9.32368 17.3364 9.22744C17.3132 9.18233 17.333 9.13267 17.3825 9.11159L17.4445 9.08524L17.6055 9.01672ZM17.9437 10.0274L17.8693 10.0591C17.8198 10.0801 17.7652 10.0621 17.742 10.017C17.6965 9.89893 17.6393 9.75831 17.564 9.61167L18.0348 9.4114C18.1043 9.54675 18.1739 9.68211 18.2252 9.81145C18.236 9.86184 18.1667 9.93257 18.1171 9.95365" fill="#F7C608"/>
    <path d="M17.6323 9.10409L17.6856 9.08143C17.7215 9.06614 17.762 9.08323 17.7899 9.11705C17.8381 9.21086 17.9095 9.32913 17.9673 9.4417L17.6303 9.58506C17.5676 9.46311 17.4963 9.34484 17.4442 9.2641C17.425 9.22658 17.4365 9.18737 17.4725 9.17208L17.5171 9.15311L17.6323 9.10409ZM17.9306 9.93743L17.8773 9.96009C17.8414 9.97538 17.8009 9.95831 17.7816 9.92078C17.7421 9.82328 17.6929 9.70702 17.6303 9.58506L17.9673 9.44171C18.0251 9.55428 18.083 9.66686 18.1273 9.77374C18.1379 9.81496 18.0904 9.86945 18.0545 9.88473" fill="#006233"/>
    <path d="M18.3018 10.5926L18.3829 10.5813C18.437 10.5738 18.4837 10.6051 18.5055 10.6525C18.5262 10.7755 18.5666 10.9337 18.5914 11.0814L18.0777 11.1529C18.0508 10.9929 18.0104 10.8347 17.9783 10.7258C17.97 10.6766 18.0043 10.634 18.0584 10.6265L18.126 10.6171L18.3018 10.5926ZM18.3133 11.6491L18.2322 11.6604C18.1781 11.6679 18.1314 11.6367 18.1231 11.5874C18.1159 11.4625 18.1046 11.3129 18.0777 11.1529L18.5914 11.0814C18.6163 11.2291 18.6411 11.3768 18.6503 11.5141C18.6451 11.5652 18.5567 11.6153 18.5026 11.6228" fill="#F7C608"/>
    <path d="M18.3005 10.6834L18.3586 10.6753C18.3978 10.6699 18.4314 10.6967 18.4477 10.7363C18.4649 10.8386 18.4967 10.9704 18.5174 11.0933L18.1497 11.1444C18.1273 11.0114 18.0955 10.8796 18.0705 10.7888C18.0636 10.7478 18.0869 10.7132 18.1261 10.7077L18.1747 10.7009L18.3005 10.6834ZM18.3287 11.5595L18.2706 11.5676C18.2314 11.5731 18.1978 11.5463 18.191 11.5054C18.1832 11.4017 18.172 11.2775 18.1497 11.1444L18.5174 11.0933C18.538 11.2161 18.5587 11.3389 18.5682 11.4529C18.5656 11.4951 18.5031 11.5353 18.4639 11.5407" fill="#006233"/>
    <path d="M18.4821 12.2839L18.5634 12.2938C18.6176 12.3005 18.6528 12.3425 18.6591 12.3935C18.6408 12.5169 18.6306 12.679 18.6087 12.827L18.0937 12.764C18.1174 12.6036 18.1276 12.4415 18.1304 12.3288C18.1377 12.2794 18.1839 12.2474 18.2381 12.254L18.3059 12.2623L18.4821 12.2839ZM18.1661 13.3005L18.0848 13.2905C18.0306 13.2839 17.9954 13.2419 18.0027 13.1926C18.0345 13.0708 18.07 12.9244 18.0937 12.764L18.6087 12.827C18.5868 12.9751 18.5649 13.1232 18.5313 13.2573C18.5105 13.305 18.4101 13.3304 18.3559 13.3237" fill="#F7C608"/>
    <path d="M18.4526 12.3706L18.5109 12.3777C18.5502 12.3825 18.5741 12.4168 18.5776 12.459C18.5624 12.5617 18.5521 12.6962 18.5339 12.8194L18.1652 12.7743C18.185 12.6408 18.1952 12.5063 18.1994 12.4127C18.2055 12.3717 18.2385 12.3444 18.2778 12.3492L18.3266 12.3552L18.4526 12.3706ZM18.2086 13.2184L18.1503 13.2113C18.111 13.2065 18.0871 13.1722 18.0931 13.1312C18.1178 13.0297 18.1455 12.9077 18.1652 12.7743L18.5339 12.8194C18.5157 12.9426 18.4975 13.0657 18.4713 13.1775C18.4558 13.2174 18.3834 13.2398 18.3441 13.235" fill="#006233"/>
    <path d="M18.1323 13.9524L18.2073 13.9828C18.2573 14.003 18.278 14.0524 18.2682 14.1029C18.2125 14.2166 18.1526 14.3695 18.0857 14.506L17.611 14.3135C17.6834 14.1657 17.7434 14.0127 17.781 13.9053C17.8033 13.8598 17.8575 13.8409 17.9075 13.8612L17.9699 13.8865L18.1323 13.9524ZM17.5145 14.8469L17.4395 14.8165C17.3895 14.7962 17.3688 14.7469 17.391 14.7014C17.4592 14.5927 17.5386 14.4613 17.611 14.3135L18.0857 14.506C18.0189 14.6425 17.952 14.779 17.8783 14.899C17.8435 14.9394 17.7393 14.9381 17.6894 14.9178" fill="#F7C608"/>
    <path d="M18.0772 14.0281L18.1309 14.0499C18.1671 14.0646 18.1795 14.1036 18.1697 14.145C18.1233 14.2396 18.0719 14.3661 18.0163 14.4796L17.6765 14.3418C17.7367 14.2188 17.7882 14.0923 17.8211 14.0036C17.8397 13.9658 17.8798 13.9481 17.916 13.9628L17.961 13.981L18.0772 14.0281ZM17.5805 14.779L17.5268 14.7573C17.4906 14.7426 17.4783 14.7036 17.4968 14.6657C17.5519 14.5747 17.6162 14.4647 17.6765 14.3418L18.0162 14.4796C17.9606 14.5931 17.905 14.7066 17.8453 14.8071C17.8181 14.8414 17.7417 14.8444 17.7055 14.8297" fill="#006233"/>
    <path d="M17.2791 15.4639L17.3416 15.5122C17.3833 15.5445 17.3879 15.5971 17.3629 15.6431C17.2742 15.738 17.1694 15.8693 17.063 15.9831L16.6671 15.6768C16.7824 15.5535 16.8872 15.4221 16.9566 15.3287C16.9921 15.2908 17.0499 15.2865 17.0916 15.3187L17.1437 15.3591L17.2791 15.4639ZM16.4094 16.1638L16.3469 16.1154C16.3052 16.0831 16.3005 16.0305 16.336 15.9926C16.4351 15.9058 16.5519 15.8 16.6671 15.6768L17.063 15.9831C16.9566 16.097 16.8502 16.2108 16.7423 16.307C16.6964 16.3369 16.5969 16.3089 16.5552 16.2767" fill="#F7C608"/>
    <path d="M17.2029 15.5224L17.2477 15.557C17.2779 15.5804 17.2777 15.621 17.2555 15.6582C17.1817 15.7371 17.0932 15.8453 17.0047 15.9399L16.7213 15.7206C16.8172 15.6181 16.9057 15.5099 16.9648 15.4333C16.9943 15.4017 17.0383 15.395 17.0685 15.4184L17.106 15.4474L17.2029 15.5224ZM16.4939 16.1156L16.4491 16.081C16.4189 16.0576 16.4192 16.017 16.4487 15.9854C16.5297 15.9122 16.6255 15.8232 16.7213 15.7206L17.0047 15.94C16.9162 16.0346 16.8277 16.1293 16.7393 16.2104C16.7025 16.2363 16.6283 16.2197 16.5981 16.1963" fill="#006233"/>
    <path d="M15.9929 16.6953L16.0379 16.7577C16.0679 16.7994 16.0561 16.8511 16.0178 16.8888C15.9034 16.9571 15.7622 17.0562 15.6248 17.1382L15.3398 16.7427C15.4886 16.654 15.6298 16.5548 15.7253 16.4829C15.7711 16.4556 15.8279 16.4663 15.8579 16.508L15.8954 16.56L15.9929 16.6953ZM14.9417 17.144L14.8967 17.0815C14.8667 17.0399 14.8786 16.9882 14.9243 16.9609C15.0463 16.903 15.1911 16.8315 15.3398 16.7427L15.6248 17.1382C15.4875 17.2201 15.3502 17.302 15.2168 17.3667C15.1636 17.3836 15.0767 17.3313 15.0467 17.2896" fill="#F7C608"/>
    <path d="M15.9017 16.732L15.934 16.7767C15.9557 16.8069 15.9429 16.8458 15.9101 16.8758C15.8149 16.9326 15.6964 17.0137 15.5822 17.0818L15.3782 16.7988C15.5019 16.7249 15.6204 16.6438 15.7008 16.5854C15.7389 16.5627 15.7832 16.5675 15.8049 16.5977L15.8319 16.6352L15.9017 16.732ZM15.0378 17.1195L15.0055 17.0747C14.9838 17.0446 14.9966 17.0057 15.0346 16.983C15.1351 16.9334 15.2545 16.8726 15.3782 16.7988L15.5822 17.0818C15.468 17.15 15.3538 17.2181 15.2439 17.2733C15.2006 17.2887 15.1345 17.2537 15.1128 17.2236" fill="#006233"/>
    <path d="M14.3778 17.5473L14.4017 17.6188C14.4176 17.6664 14.3902 17.713 14.3418 17.7393C14.2109 17.7755 14.0446 17.8345 13.8875 17.8779L13.7365 17.4254C13.9067 17.3784 14.0729 17.3194 14.1868 17.275C14.2391 17.2605 14.2903 17.2853 14.3062 17.333L14.3261 17.3925L14.3778 17.5473ZM13.2303 17.7084L13.2064 17.6369C13.1905 17.5893 13.2179 17.5427 13.2702 17.5283C13.4051 17.504 13.5662 17.4725 13.7365 17.4254L13.8875 17.8779C13.7304 17.9213 13.5733 17.9648 13.4253 17.9927C13.3689 17.9952 13.3018 17.9227 13.2859 17.8751" fill="#F7C608"/>
    <path d="M14.2789 17.5591L14.296 17.6103C14.3075 17.6448 14.2832 17.6789 14.2424 17.6992C14.1335 17.7293 13.9947 17.7768 13.864 17.8129L13.7559 17.489C13.8975 17.4499 14.0363 17.4024 14.1315 17.367C14.175 17.355 14.2161 17.3709 14.2276 17.4055L14.2419 17.4483L14.2789 17.5591ZM13.3299 17.7095L13.3128 17.6583C13.3013 17.6238 13.3256 17.5897 13.3692 17.5777C13.4809 17.5559 13.6143 17.5281 13.7559 17.489L13.864 17.8129C13.7333 17.849 13.6027 17.8851 13.4801 17.9099C13.4338 17.9136 13.3812 17.8631 13.3697 17.8286" fill="#006233"/>
    <path d="M12.5649 18.0261C12.5654 18.0759 12.5247 18.1136 12.4701 18.1265C12.3333 18.1276 12.1556 18.1416 11.9914 18.143L11.9865 17.6701C12.1644 17.6686 12.3421 17.6546 12.4651 17.6411C12.5199 17.6407 12.5613 17.6776 12.5618 17.7274L12.5649 18.0261ZM11.4132 17.8119L11.4125 17.7372C11.412 17.6874 11.4526 17.6497 11.5074 17.6493C11.6443 17.6606 11.8086 17.6716 11.9865 17.6701L11.9914 18.143C11.8272 18.1444 11.663 18.1458 11.5123 18.1346C11.4575 18.1226 11.4155 18.0359 11.415 17.9861" fill="#006233"/>
    <path d="M12.4662 17.9908C12.4665 18.0269 12.4327 18.0534 12.3872 18.0625C12.2734 18.0634 12.1256 18.0734 11.989 18.0746L11.9855 17.7361C12.1335 17.7348 12.2813 17.7248 12.3837 17.7152C12.4292 17.7149 12.4636 17.7407 12.464 17.7768L12.4662 17.9908ZM11.5086 17.8384L11.508 17.7849C11.5077 17.7488 11.5415 17.7224 11.5871 17.722C11.7009 17.7298 11.8376 17.7373 11.9855 17.7361L11.989 18.0746C11.8525 18.0757 11.7159 18.0769 11.5906 18.0692C11.545 18.0609 11.5102 17.999 11.5099 17.9629" fill="#006233"/>
  </symbol>

  <symbol id="kazakhstan" viewBox="0 0 24 24">
    <path d="M12 24C18.6274 24 24 18.6274 24 12C24 5.37258 18.6274 0 12 0C5.37258 0 0 5.37258 0 12C0 18.6274 5.37258 24 12 24Z" fill="#338AF3"/>
    <path d="M18.7827 12.1305H5.21741C5.21741 13.067 6.03308 13.8262 6.9695 13.8262H6.91306C6.91306 14.7627 7.6722 15.5218 8.60872 15.5218C8.60872 16.4583 9.36786 17.2175 10.3044 17.2175H13.6957C14.6322 17.2175 15.3913 16.4583 15.3913 15.5218C16.3279 15.5218 17.087 14.7627 17.087 13.8262H17.0306C17.9669 13.8262 18.7827 13.067 18.7827 12.1305Z" fill="#FFDA44"/>
    <path d="M16.6957 9.91309C16.6957 12.5064 14.5934 14.6087 12.0001 14.6087C9.40674 14.6087 7.30444 12.5064 7.30444 9.91309" fill="#338AF3"/>
    <path d="M15.5865 9.91298L14.121 10.6024L14.9014 12.0217L13.31 11.7173L13.1084 13.3249L11.9999 12.1425L10.8914 13.3249L10.6898 11.7173L9.09839 12.0217L9.87877 10.6023L8.41327 9.91298L9.87881 9.22364L9.09839 7.80431L10.6897 8.10872L10.8915 6.5011L11.9999 7.68352L13.1084 6.5011L13.31 8.10872L14.9015 7.80431L14.121 9.22369L15.5865 9.91298Z" fill="#FFDA44"/>
  </symbol>

  <symbol id="vietnam" viewBox="0 0 24 24">
    <path d="M12 24C18.6274 24 24 18.6274 24 12C24 5.37258 18.6274 0 12 0C5.37258 0 0 5.37258 0 12C0 18.6274 5.37258 24 12 24Z" fill="#D80027"/>
    <path d="M12 6.26086L13.295 10.2466H17.4859L14.0954 12.7099L15.3904 16.6957L12 14.2323L8.6095 16.6957L9.90456 12.7099L6.5141 10.2466H10.7049L12 6.26086Z" fill="#FFDA44"/>
  </symbol>

  <symbol id="arrow-horizontal" viewBox="0 0 34 26">
    <path d="M34 13H2M2 13L14.8 1M2 13L14.8 25" stroke="#333F48" stroke-width="2"/>
  </symbol>

  <symbol id="phone" viewBox="0 0 18 18">
    <path d="M6.366 7.682C7.30434 9.33048 8.66952 10.6957 10.318 11.634L11.202 10.396C11.3442 10.1969 11.5543 10.0569 11.7928 10.0023C12.0313 9.94779 12.2814 9.98254 12.496 10.1C13.9103 10.8729 15.4722 11.3378 17.079 11.464C17.3298 11.4839 17.5638 11.5975 17.7345 11.7823C17.9052 11.9671 18 12.2094 18 12.461V16.923C18.0001 17.1706 17.9083 17.4094 17.7424 17.5932C17.5765 17.777 17.3483 17.8927 17.102 17.918C16.572 17.973 16.038 18 15.5 18C6.94 18 0 11.06 0 2.5C0 1.962 0.027 1.428 0.082 0.898C0.107255 0.651697 0.222984 0.423521 0.40679 0.257634C0.590595 0.0917472 0.829406 -5.33578e-05 1.077 2.32673e-08H5.539C5.79056 -3.15185e-05 6.0329 0.0947515 6.21768 0.265451C6.40247 0.43615 6.51613 0.670224 6.536 0.921C6.66222 2.52779 7.12708 4.08968 7.9 5.504C8.01746 5.71856 8.05221 5.96874 7.99767 6.2072C7.94312 6.44565 7.80306 6.65584 7.604 6.798L6.366 7.682ZM3.844 7.025L5.744 5.668C5.20478 4.50409 4.83535 3.26884 4.647 2H2.01C2.004 2.166 2.001 2.333 2.001 2.5C2 9.956 8.044 16 15.5 16C15.667 16 15.834 15.997 16 15.99V13.353C14.7312 13.1646 13.4959 12.7952 12.332 12.256L10.975 14.156C10.4287 13.9437 9.89801 13.6931 9.387 13.406L9.329 13.373C7.36758 12.2567 5.74328 10.6324 4.627 8.671L4.594 8.613C4.30691 8.10199 4.05628 7.57134 3.844 7.025Z" fill="#20242D"/>
  </symbol>

  <symbol id="check" viewBox="0 0 24 24">
    <path fill-rule="evenodd" clip-rule="evenodd" d="M9.70711 14.2929L19 5L20.4142 6.41421L9.70711 17.1213L4 11.4142L5.41421 10L9.70711 14.2929Z" fill="#EB3300"/>
  </symbol>

  <symbol id="med-cross" viewBox="0 0 40 40">
    <rect width="40" height="40" rx="20" fill="#E1E4EA"/>
    <rect x="17" y="11" width="6" height="18" fill="white"/>
    <rect x="29" y="17" width="6" height="18" transform="rotate(90 29 17)" fill="white"/>
  </symbol>
</svg>
