<svg xmlns="http://www.w3.org/2000/svg">
  <symbol id="menu" viewBox="0 0 24 24">
    <path d="M3 18h18v-2H3v2zm0-5h18v-2H3v2zm0-7v2h18V6H3z"/>
  </symbol>

  <symbol id="cross" viewBox="0 0 24 24">
    <path d="M19 6.41L17.59 5 12 10.59 6.41 5 5 6.41 10.59 12 5 17.59 6.41 19 12 13.41 17.59 19 19 17.59 13.41 12z"/>
  </symbol>

  <symbol id="phone" viewBox="0 0 24 24">
    <path d="M20.01 15.38c-1.23 0-2.42-.2-3.53-.56-.35-.12-.74-.03-1.01.24l-1.57 1.97c-2.83-1.35-5.48-3.9-6.89-6.83l1.95-1.66c.27-.28.35-.67.24-1.02-.37-1.11-.56-2.3-.56-3.53 0-.54-.45-.99-.99-.99H4.19C3.65 3 3 3.24 3 3.99 3 13.28 10.73 21 20.01 21c.71 0 .99-.63.99-1.18v-3.45c0-.54-.45-.99-.99-.99z"/>
  </symbol>

  <symbol id="logo-black" viewBox="0 0 196 24">
    <path d="M140.543 5.10579H138.898V8.56624H137.794V0.699463H138.898V4.11662H140.563L143.041 0.699463H144.246L141.43 4.50962L144.379 8.56624H143.095L140.543 5.10579Z" fill="#333F48"/>
    <path d="M146.24 8.23986C145.767 7.97675 145.396 7.61705 145.133 7.1541C144.866 6.69448 144.733 6.17159 144.733 5.58541C144.733 4.99923 144.866 4.47966 145.133 4.01672C145.4 3.5571 145.77 3.1974 146.24 2.93761C146.714 2.67783 147.244 2.55127 147.838 2.55127C148.432 2.55127 148.962 2.68116 149.433 2.93761C149.903 3.19407 150.27 3.5571 150.537 4.01672C150.804 4.47633 150.937 4.99923 150.937 5.58541C150.937 6.17159 150.804 6.69115 150.537 7.1541C150.27 7.61372 149.903 7.97675 149.433 8.23986C148.962 8.50298 148.432 8.63287 147.838 8.63287C147.244 8.63287 146.714 8.50298 146.24 8.23986ZM148.869 7.42388C149.172 7.24736 149.413 7.00089 149.583 6.68116C149.756 6.36143 149.843 5.9984 149.843 5.58541C149.843 5.17242 149.756 4.80939 149.583 4.48965C149.409 4.16992 149.172 3.92679 148.869 3.7536C148.565 3.58041 148.222 3.49382 147.838 3.49382C147.455 3.49382 147.111 3.58041 146.807 3.7536C146.504 3.92679 146.264 4.17325 146.087 4.48965C145.91 4.80606 145.823 5.17242 145.823 5.58541C145.823 5.9984 145.913 6.36143 146.087 6.68116C146.26 7.00089 146.504 7.24736 146.807 7.42388C147.111 7.6004 147.455 7.68699 147.838 7.68699C148.222 7.69032 148.565 7.6004 148.869 7.42388Z" fill="#333F48"/>
    <path d="M159.377 2.60791V8.56628H158.396V4.21657L156.168 7.89351H155.694L153.486 4.20658V8.56628H152.495V2.60791H153.609L155.951 6.63122L158.359 2.60791H159.377Z" fill="#333F48"/>
    <path d="M167.012 2.60791V8.56628H165.931V3.55379H162.566V8.56628H161.485V2.60791H167.012Z" fill="#333F48"/>
    <path d="M173.13 3.16071C173.57 3.56371 173.787 4.16987 173.787 4.9692V8.56621H172.763V7.7802C172.583 8.05663 172.326 8.26979 171.992 8.41633C171.659 8.56288 171.262 8.63615 170.805 8.63615C170.138 8.63615 169.601 8.47628 169.2 8.15322C168.8 7.83015 168.6 7.40717 168.6 6.88094C168.6 6.35805 168.79 5.93507 169.174 5.61533C169.557 5.2956 170.164 5.13573 170.998 5.13573H172.71V4.92257C172.71 4.4563 172.573 4.10326 172.303 3.85347C172.032 3.607 171.636 3.48044 171.108 3.48044C170.755 3.48044 170.411 3.54039 170.071 3.65363C169.734 3.7702 169.447 3.92674 169.214 4.11991L168.763 3.31058C169.07 3.06412 169.441 2.87428 169.868 2.74106C170.295 2.61117 170.748 2.54456 171.229 2.54456C172.059 2.55122 172.69 2.75438 173.13 3.16071ZM172.056 7.52707C172.356 7.34389 172.573 7.08411 172.71 6.74439V5.91175H171.042C170.128 5.91175 169.667 6.21816 169.667 6.83432C169.667 7.13407 169.784 7.37054 170.018 7.54373C170.251 7.71691 170.575 7.80351 170.985 7.80351C171.399 7.80351 171.756 7.71025 172.056 7.52707Z" fill="#333F48"/>
    <path d="M175.735 2.60791H176.816V5.1358H180.215V2.60791H181.296V8.56628H180.215V6.07169H176.816V8.56628H175.735V2.60791Z" fill="#333F48"/>
    <path d="M183.404 2.60791H184.485V6.94763L188.144 2.60791H189.125V8.56628H188.044V4.22656L184.398 8.56628H183.408V2.60791H183.404Z" fill="#333F48"/>
    <path d="M196 2.60791V8.56628H195.033V6.67785H193.298H193.175L191.87 8.56628H190.71L192.161 6.53131C191.71 6.39809 191.367 6.17494 191.127 5.86187C190.886 5.55212 190.766 5.16245 190.766 4.6995C190.766 4.01674 190.996 3.49717 191.463 3.14413C191.93 2.79109 192.571 2.61124 193.388 2.61124H196V2.60791ZM192.247 5.6154C192.501 5.80525 192.874 5.90183 193.378 5.90183H195.033V3.55379H193.422C192.387 3.55379 191.867 3.94679 191.867 4.73281C191.87 5.12914 191.994 5.42556 192.247 5.6154Z" fill="#333F48"/>
    <path d="M144.236 14.7478V22.6146H143.131V15.727H139.642L139.562 18.0317C139.525 19.1175 139.435 20.0001 139.299 20.6729C139.158 21.349 138.938 21.8552 138.641 22.1949C138.341 22.5347 137.938 22.7078 137.427 22.7078C137.194 22.7078 136.957 22.6779 136.717 22.6179L136.797 21.6187C136.917 21.6487 137.037 21.662 137.157 21.662C137.481 21.662 137.737 21.5322 137.934 21.2757C138.131 21.0159 138.274 20.6296 138.375 20.1133C138.475 19.5971 138.535 18.9143 138.565 18.0684L138.688 14.7511H144.236V14.7478Z" fill="#333F48"/>
    <path d="M146.51 16.6595H147.591V20.9993L151.251 16.6595H152.231V22.6179H151.151V18.2782L147.501 22.6179H146.51V16.6595Z" fill="#333F48"/>
    <path d="M158.713 17.6021H155.404V22.6146H154.323V16.6595H158.713V17.6021Z" fill="#333F48"/>
    <path d="M163.84 17.209C164.28 17.612 164.497 18.2182 164.497 19.0175V22.6145H163.473V21.8285C163.293 22.1049 163.036 22.3181 162.702 22.4646C162.369 22.6112 161.972 22.6845 161.515 22.6845C160.848 22.6845 160.311 22.5246 159.91 22.2015C159.51 21.8785 159.31 21.4555 159.31 20.9326C159.31 20.4097 159.5 19.9867 159.884 19.667C160.267 19.3472 160.874 19.1874 161.708 19.1874H163.42V18.9742C163.42 18.5079 163.283 18.1549 163.013 17.9051C162.742 17.6586 162.345 17.5321 161.818 17.5321C161.465 17.5321 161.121 17.592 160.781 17.7053C160.441 17.8185 160.157 17.9784 159.924 18.1715L159.473 17.3622C159.78 17.1158 160.15 16.9259 160.577 16.7927C161.004 16.6628 161.458 16.5962 161.938 16.5962C162.769 16.6029 163.403 16.806 163.84 17.209ZM162.766 21.5787C163.066 21.3955 163.283 21.1357 163.42 20.796V19.9634H161.755C160.838 19.9634 160.381 20.2698 160.381 20.886C160.381 21.1857 160.497 21.4222 160.731 21.5954C160.964 21.7685 161.288 21.8551 161.698 21.8551C162.109 21.8551 162.465 21.7619 162.766 21.5787Z" fill="#333F48"/>
    <path d="M166.448 16.6595H167.529V19.1874H170.928V16.6595H172.009V22.6179H170.928V20.1233H167.529V22.6179H166.448V16.6595Z" fill="#333F48"/>
    <path d="M180.182 21.672V24.0001H179.168V22.6179H174.181V24.0001H173.157V21.672H173.47C173.854 21.6487 174.117 21.3789 174.258 20.8627C174.401 20.3465 174.498 19.6138 174.551 18.6712L174.641 16.6595H179.268V21.672H180.182ZM175.358 20.6096C175.265 21.0992 175.095 21.4555 174.845 21.672H178.19V17.6021H175.602L175.545 18.7478C175.515 19.5005 175.452 20.12 175.358 20.6096Z" fill="#333F48"/>
    <path d="M97.0777 17.3855V23.3139H77.6635V0H97.0777V5.92839H85.4024V8.65945H94.4724V14.3214H85.4024V17.3855H97.0777Z" fill="#333F48"/>
    <path d="M127.373 17.219V23.3139H120.688H107.412H99.6862V17.219H100.874C102.228 17.219 103.185 16.3664 103.743 14.6545C104.3 12.9459 104.653 10.4246 104.81 7.09409L105.077 0H124.825V17.219H127.373ZM111.115 13.4721C110.848 15.0375 110.434 16.2864 109.88 17.219H117.086V6.09492H111.715L111.648 7.7602C111.558 10.005 111.381 11.9067 111.115 13.4721Z" fill="#333F48"/>
    <path d="M74.9915 0H68.5201L61.1147 12.423L53.5092 0H37.9144C38.8651 0.256453 39.7791 0.586178 40.6331 1.03247C42.6345 2.07494 44.2024 3.52706 45.3365 5.37885C46.4707 7.23397 47.0378 9.32556 47.0378 11.657C47.0378 13.9883 46.4707 16.0799 45.3365 17.9351C44.2024 19.7902 42.6345 21.239 40.6331 22.2814C39.7758 22.7277 38.8651 23.0575 37.9144 23.3139H54.2097V13.0558L59.28 21.2157H62.7492L67.8196 12.6894L67.8863 23.3139H75.0582L74.9915 0Z" fill="#333F48"/>
    <path d="M40.4096 9.37889H36.1431V5.12244H31.5831V9.37889H27.3167V13.9351H31.5831V18.1949H36.1431V13.9351H40.4096V9.37889Z" fill="#EB3300"/>
    <path d="M22.3864 17.9351L18.4201 11.657L22.3864 5.37885C23.5205 3.52706 25.0883 2.07494 27.0898 1.03247C27.9471 0.586178 28.8578 0.256453 29.8085 0H17.3293L11.8387 8.69276H7.87242V0H0V23.3139H7.87242V14.8876H11.6385L16.6288 23.3139H29.8085C28.8578 23.0575 27.9471 22.7277 27.0898 22.2814C25.0883 21.239 23.5205 19.7902 22.3864 17.9351Z" fill="#EB3300"/>
  </symbol>

  <symbol id="logo-white" viewBox="0 0 190 24">
    <path d="M136.24 5.10575H134.646V8.5662H133.576V0.699417H134.646V4.11657H136.26L138.662 0.699417H139.83L137.101 4.50958L139.959 8.5662H138.714L136.24 5.10575Z" fill="#E3E5E8"/>
    <path d="M141.764 8.2398C141.304 7.97669 140.945 7.61699 140.69 7.15404C140.431 6.69442 140.302 6.17152 140.302 5.58535C140.302 4.99917 140.431 4.4796 140.69 4.01665C140.949 3.55704 141.308 3.19734 141.764 2.93755C142.223 2.67777 142.737 2.55121 143.312 2.55121C143.888 2.55121 144.402 2.6811 144.858 2.93755C145.314 3.19401 145.67 3.55704 145.928 4.01665C146.187 4.47627 146.316 4.99917 146.316 5.58535C146.316 6.17152 146.187 6.69109 145.928 7.15404C145.67 7.61366 145.314 7.97669 144.858 8.2398C144.402 8.50291 143.888 8.63281 143.312 8.63281C142.737 8.63281 142.223 8.50291 141.764 8.2398ZM144.312 7.42381C144.606 7.24729 144.839 7.00083 145.004 6.6811C145.172 6.36137 145.256 5.99834 145.256 5.58535C145.256 5.17236 145.172 4.80933 145.004 4.48959C144.835 4.16986 144.606 3.92673 144.312 3.75354C144.017 3.58035 143.684 3.49376 143.312 3.49376C142.941 3.49376 142.608 3.58035 142.313 3.75354C142.019 3.92673 141.786 4.17319 141.615 4.48959C141.443 4.806 141.359 5.17236 141.359 5.58535C141.359 5.99834 141.447 6.36137 141.615 6.6811C141.783 7.00083 142.019 7.24729 142.313 7.42381C142.608 7.60033 142.941 7.68693 143.312 7.68693C143.684 7.69026 144.017 7.60033 144.312 7.42381Z" fill="#E3E5E8"/>
    <path d="M154.498 2.60782V8.56619H153.547V4.21648L151.387 7.89341H150.928L148.787 4.20649V8.56619H147.827V2.60782H148.907L151.177 6.63113L153.511 2.60782H154.498Z" fill="#E3E5E8"/>
    <path d="M161.9 2.60782V8.56619H160.852V3.5537H157.589V8.56619H156.541V2.60782H161.9Z" fill="#E3E5E8"/>
    <path d="M167.83 3.16069C168.257 3.56369 168.467 4.16985 168.467 4.96919V8.56619H167.474V7.78018C167.3 8.05662 167.051 8.26977 166.727 8.41632C166.404 8.56286 166.019 8.63613 165.576 8.63613C164.929 8.63613 164.409 8.47627 164.021 8.1532C163.633 7.83014 163.439 7.40716 163.439 6.88093C163.439 6.35803 163.623 5.93505 163.995 5.61532C164.367 5.29558 164.955 5.13572 165.764 5.13572H167.423V4.92256C167.423 4.45628 167.29 4.10324 167.028 3.85345C166.766 3.60699 166.381 3.48043 165.87 3.48043C165.528 3.48043 165.195 3.54038 164.865 3.65362C164.538 3.77019 164.26 3.92672 164.034 4.11989L163.597 3.31057C163.895 3.06411 164.254 2.87427 164.668 2.74104C165.081 2.61115 165.521 2.54454 165.987 2.54454C166.792 2.5512 167.403 2.75437 167.83 3.16069ZM166.789 7.52706C167.08 7.34388 167.29 7.08409 167.423 6.74438V5.91174H165.806C164.92 5.91174 164.474 6.21815 164.474 6.8343C164.474 7.13405 164.587 7.37052 164.813 7.54371C165.039 7.7169 165.353 7.80349 165.751 7.80349C166.152 7.80349 166.498 7.71024 166.789 7.52706Z" fill="#E3E5E8"/>
    <path d="M170.356 2.60782H171.403V5.13571H174.698V2.60782H175.746V8.56619H174.698V6.0716H171.403V8.56619H170.356V2.60782Z" fill="#E3E5E8"/>
    <path d="M177.79 2.60782H178.837V6.94754L182.385 2.60782H183.335V8.56619H182.288V4.22647L178.753 8.56619H177.793V2.60782H177.79Z" fill="#E3E5E8"/>
    <path d="M190 2.60782V8.56619H189.062V6.67776H187.381H187.261L185.997 8.56619H184.871L186.278 6.53122C185.842 6.39799 185.508 6.17485 185.276 5.86177C185.043 5.55203 184.926 5.16236 184.926 4.69941C184.926 4.01664 185.15 3.49708 185.602 3.14404C186.055 2.791 186.676 2.61115 187.468 2.61115H190V2.60782ZM186.362 5.61531C186.608 5.80515 186.97 5.90174 187.458 5.90174H189.062V3.5537H187.5C186.498 3.5537 185.994 3.9467 185.994 4.73271C185.997 5.12905 186.116 5.42547 186.362 5.61531Z" fill="#E3E5E8"/>
    <path d="M139.82 14.7477V22.6145H138.75V15.7269H135.367L135.29 18.0316C135.254 19.1174 135.167 20 135.034 20.6728C134.898 21.3489 134.685 21.8551 134.397 22.1948C134.106 22.5346 133.715 22.7077 133.22 22.7077C132.994 22.7077 132.764 22.6778 132.531 22.6178L132.609 21.6187C132.725 21.6486 132.842 21.662 132.958 21.662C133.272 21.662 133.521 21.5321 133.712 21.2756C133.903 21.0158 134.042 20.6295 134.139 20.1132C134.236 19.597 134.294 18.9142 134.323 18.0683L134.443 14.751H139.82V14.7477Z" fill="#E3E5E8"/>
    <path d="M142.025 16.6595H143.073V20.9992L146.62 16.6595H147.571V22.6178H146.523V18.2781L142.986 22.6178H142.025V16.6595Z" fill="#E3E5E8"/>
    <path d="M153.854 17.602H150.646V22.6145H149.599V16.6595H153.854V17.602Z" fill="#E3E5E8"/>
    <path d="M158.824 17.209C159.251 17.612 159.461 18.2181 159.461 19.0175V22.6145H158.469V21.8285C158.294 22.1049 158.045 22.3181 157.722 22.4646C157.398 22.6112 157.013 22.6844 156.57 22.6844C155.924 22.6844 155.403 22.5246 155.015 22.2015C154.627 21.8784 154.433 21.4555 154.433 20.9326C154.433 20.4097 154.617 19.9867 154.989 19.6669C155.361 19.3472 155.95 19.1873 156.758 19.1873H158.417V18.9742C158.417 18.5079 158.284 18.1549 158.022 17.9051C157.76 17.6586 157.376 17.5321 156.865 17.5321C156.522 17.5321 156.189 17.592 155.859 17.7052C155.529 17.8185 155.254 17.9784 155.028 18.1715L154.591 17.3622C154.889 17.1157 155.248 16.9259 155.662 16.7927C156.076 16.6628 156.515 16.5962 156.981 16.5962C157.786 16.6028 158.401 16.806 158.824 17.209ZM157.783 21.5787C158.074 21.3955 158.284 21.1357 158.417 20.796V19.9634H156.803C155.914 19.9634 155.471 20.2698 155.471 20.8859C155.471 21.1857 155.584 21.4221 155.811 21.5953C156.037 21.7685 156.351 21.8551 156.748 21.8551C157.146 21.8551 157.492 21.7619 157.783 21.5787Z" fill="#E3E5E8"/>
    <path d="M161.353 16.6595H162.401V19.1873H165.696V16.6595H166.743V22.6178H165.696V20.1232H162.401V22.6178H161.353V16.6595Z" fill="#E3E5E8"/>
    <path d="M174.666 21.6719V24H173.683V22.6178H168.849V24H167.856V21.6719H168.16C168.532 21.6486 168.787 21.3789 168.923 20.8626C169.062 20.3464 169.156 19.6137 169.208 18.6711L169.295 16.6595H173.78V21.6719H174.666ZM169.99 20.6095C169.9 21.0991 169.735 21.4555 169.492 21.6719H172.736V17.602H170.226L170.171 18.7477C170.142 19.5004 170.081 20.1199 169.99 20.6095Z" fill="#E3E5E8"/>
    <path d="M94.1059 17.3855V23.3139H75.286V0H94.1059V5.92839H82.7881V8.65945H91.5804V14.3214H82.7881V17.3855H94.1059Z" fill="#E3E5E8"/>
    <path d="M123.474 17.219V23.3139H116.994H104.124H96.6346V17.219H97.7858C99.0987 17.219 100.027 16.3664 100.567 14.6545C101.107 12.9459 101.45 10.4246 101.602 7.09409L101.86 0H121.003V17.219H123.474ZM107.713 13.4721C107.454 15.0375 107.053 16.2864 106.517 17.219H113.501V6.09492H108.295L108.231 7.7602C108.143 10.005 107.972 11.9067 107.713 13.4721Z" fill="#E3E5E8"/>
    <path d="M72.6958 0H66.4226L59.2438 12.423L51.8711 0H36.7538C37.6753 0.256453 38.5614 0.586178 39.3892 1.03247C41.3294 2.07494 42.8492 3.52706 43.9486 5.37885C45.0481 7.23397 45.5978 9.32556 45.5978 11.657C45.5978 13.9883 45.0481 16.0799 43.9486 17.9351C42.8492 19.7902 41.3294 21.239 39.3892 22.2814C38.5581 22.7277 37.6753 23.0575 36.7538 23.3139H52.5502V13.0558L57.4653 21.2157H60.8283L65.7435 12.6894L65.8082 23.3139H72.7605L72.6958 0Z" fill="#E3E5E8"/>
    <path d="M39.1725 9.37886H35.0367V5.12241H30.6163V9.37886H26.4804V13.9351H30.6163V18.1948H35.0367V13.9351H39.1725V9.37886Z" fill="#FF401A"/>
    <path d="M21.7011 17.9351L17.8563 11.657L21.7011 5.37885C22.8005 3.52706 24.3203 2.07494 26.2605 1.03247C27.0916 0.586178 27.9744 0.256453 28.896 0H16.7988L11.4762 8.69276H7.63143V0H0V23.3139H7.63143V14.8876H11.2822L16.1198 23.3139H28.896C27.9744 23.0575 27.0916 22.7277 26.2605 22.2814C24.3203 21.239 22.8005 19.7902 21.7011 17.9351Z" fill="#FF401A"/>
  </symbol>
</svg>
